<?xml version="1.0" encoding="UTF-8"?>
<svg version="1.1" xmlns="http://www.w3.org/2000/svg" width="419" height="375">
<path d="M0 0 C4.15488954 0.45096432 7.53721843 1.49334144 11.30859375 3.2578125 C12.29553223 3.71510742 13.2824707 4.17240234 14.29931641 4.64355469 C15.85271729 5.37687012 15.85271729 5.37687012 17.4375 6.125 C18.50919434 6.62418945 19.58088867 7.12337891 20.68505859 7.63769531 C22.82222772 8.63398901 24.9580059 9.6332727 27.09228516 10.63574219 C29.53005931 11.77951062 31.97171611 12.91358924 34.41796875 14.0390625 C42.7001022 17.85581609 50.86687349 21.87704373 59 26 C58.35583145 30.65653131 56.47810003 34.59176809 54.45703125 38.78125 C54.09642609 39.53991867 53.73582092 40.29858734 53.36428833 41.08024597 C52.18573461 43.5561018 50.99920516 46.02804234 49.8125 48.5 C48.99833478 50.20657511 48.18461745 51.91336397 47.37133789 53.62036133 C43.51271797 61.70978722 39.62604002 69.78566875 35.7265625 77.85546875 C35.40038437 78.53050446 35.07420624 79.20554016 34.73814392 79.90103149 C33.21407465 83.05323084 31.68680362 86.20381274 30.15356445 89.3515625 C29.61691162 90.45628906 29.08025879 91.56101562 28.52734375 92.69921875 C28.06062256 93.65658936 27.59390137 94.61395996 27.11303711 95.6003418 C25.91764908 98.05987194 25.91764908 98.05987194 25 101 C25.8328653 101.26006081 25.8328653 101.26006081 26.68255615 101.52537537 C32.03652002 103.24603956 37.07759501 105.28446744 42.140625 107.72265625 C42.87069763 108.06880478 43.60077026 108.41495331 44.35296631 108.77159119 C46.65431727 109.86372093 48.95228624 110.96274164 51.25 112.0625 C53.56259082 113.16452622 55.87587577 114.26506604 58.18988037 115.36412048 C59.621054 116.04437152 61.0513229 116.72653042 62.48052979 117.41090393 C65.94570373 119.06292976 69.41475101 120.62634635 73 122 C67.42973709 134.02922872 61.57411908 145.90503171 55.625 157.75 C48.9254971 171.09379462 42.36630211 184.49336149 36 198 C34.43821527 201.31283822 32.87612311 204.625529 31.3125 207.9375 C30.94576172 208.71472412 30.57902344 209.49194824 30.20117188 210.29272461 C27.55624243 215.87758573 24.81566301 221.40878906 22.02758789 226.92333984 C18.9474626 233.04065116 16.02876995 239.23154494 13.14453125 245.44335938 C10.96492033 250.10197832 8.61275495 254.56890884 6 259 C7.65 259 9.3 259 11 259 C11.0928125 258.33355469 11.185625 257.66710937 11.28125 256.98046875 C12.20407706 253.15374566 13.79334557 249.84575446 15.5 246.3125 C15.82097656 245.63638672 16.14195312 244.96027344 16.47265625 244.26367188 C18.08999484 240.86320057 19.72883137 237.49737307 21.53125 234.19140625 C25.56035329 226.78563969 29.37587897 219.30032864 33 211.6875 C33.39767578 210.85742432 33.79535156 210.02734863 34.20507812 209.17211914 C34.57052734 208.39731201 34.93597656 207.62250488 35.3125 206.82421875 C35.63863281 206.13416748 35.96476562 205.44411621 36.30078125 204.7331543 C37.12471229 203.00235631 37.12471229 203.00235631 37 201 C37.66 201 38.32 201 39 201 C39.2357373 200.20110352 39.47147461 199.40220703 39.71435547 198.57910156 C41.32348895 194.09944017 43.41050991 189.97006282 45.5703125 185.734375 C46.0114035 184.85976624 46.45249451 183.98515747 46.9069519 183.08404541 C48.30911419 180.30406253 49.71642002 177.52673607 51.125 174.75 C52.9863104 171.0803972 54.84240972 167.40822884 56.6953125 163.734375 C57.12651398 162.88856873 57.55771545 162.04276245 58.00198364 161.17132568 C58.59292313 159.99935638 58.59292313 159.99935638 59.19580078 158.80371094 C59.71969894 157.77162506 59.71969894 157.77162506 60.25418091 156.71868896 C61.13269365 155.0064726 61.13269365 155.0064726 61 153 C61.66 153 62.32 153 63 153 C63.23033936 152.21987549 63.46067871 151.43975098 63.69799805 150.63598633 C66.52433885 142.74311298 70.56001515 135.30793487 74.27563477 127.8034668 C75.30271929 125.72107128 76.32190098 123.63475977 77.33325195 121.54467773 C78.7946843 118.52482686 80.27919332 115.5173887 81.76953125 112.51171875 C82.21867386 111.57325607 82.66781647 110.6347934 83.13056946 109.66789246 C83.78100471 108.37568535 83.78100471 108.37568535 84.44458008 107.05737305 C84.81827225 106.29603561 85.19196442 105.53469818 85.57698059 104.75028992 C87 103 87 103 89.46324158 102.18112183 C93.09620008 101.92173249 95.38307232 103.15593444 98.671875 104.68359375 C99.30775543 104.97442337 99.94363586 105.26525299 100.5987854 105.56489563 C102.65548195 106.50944154 104.70264585 107.47289328 106.75 108.4375 C108.1539623 109.08798855 109.55842353 109.73740133 110.96337891 110.38574219 C113.72496075 111.66282783 116.4827277 112.947623 119.23730469 114.23974609 C122.41215083 115.72824815 125.5974046 117.19235587 128.7890625 118.64453125 C130.31801411 119.34568777 131.84669336 120.04743874 133.375 120.75 C134.0565918 121.05993896 134.73818359 121.36987793 135.44042969 121.68920898 C139.88423468 123.76846937 139.88423468 123.76846937 141 126 C140.18099481 128.10747248 139.24894665 130.17118466 138.2734375 132.2109375 C137.97476273 132.8415509 137.67608795 133.47216431 137.36836243 134.12188721 C136.37770232 136.20973137 135.3762507 138.29221673 134.375 140.375 C133.67856193 141.83861086 132.9830155 143.3026463 132.28833008 144.76708984 C131.22380071 147.01070435 130.1586237 149.25398882 129.09046936 151.49588013 C125.90484313 158.1822602 122.79071537 164.89995517 119.6875 171.625 C108.0019232 196.84930059 96.07120159 221.95924337 83.86206055 246.93432617 C83.54062073 247.59343994 83.21918091 248.25255371 82.88800049 248.93164062 C82.02566742 250.69952319 81.16122877 252.46637827 80.29663086 254.2331543 C78.93739432 256.99410784 78.93739432 256.99410784 78 260 C79.18722656 259.98839844 80.37445313 259.97679687 81.59765625 259.96484375 C95.57539911 259.87658016 109.55017689 260.06523882 123.52536011 260.31838989 C125.67547085 260.35613612 127.82564289 260.39053859 129.9758606 260.42160034 C133.04145174 260.46692062 136.10656252 260.52485088 139.171875 260.5859375 C140.10327805 260.59749374 141.03468109 260.60904999 141.99430847 260.62095642 C142.85824722 260.64082108 143.72218597 260.66068573 144.61230469 260.68115234 C145.36598328 260.69447601 146.11966187 260.70779968 146.8961792 260.7215271 C149.27217803 261.03602693 150.92740112 261.82296175 153 263 C135.86602586 263.98164546 118.78374762 264.12108869 101.625 264.0625 C99.02734462 264.05746893 96.42968829 264.0529089 93.83203125 264.04882812 C87.55466613 264.03796374 81.27733775 264.0213561 75 264 C74.67 264.66 74.34 265.32 74 266 C74 265.34 74 264.68 74 264 C73.06034173 264.16238096 72.12068346 264.32476192 71.1525507 264.49206352 C66.29155107 265.18091866 61.46055418 265.13832824 56.55918884 265.12698364 C55.51985673 265.12854363 54.48052462 265.13010362 53.40969759 265.13171089 C49.93189002 265.13569437 46.45412624 265.1325411 42.97631836 265.12939453 C40.47852554 265.13075007 37.98073292 265.13253086 35.48294067 265.13470459 C29.39577445 265.1387951 23.3086253 265.13818892 17.22145974 265.13529195 C12.25014798 265.13302553 7.27883967 265.13273078 2.30752754 265.13381577 C1.59738794 265.133969 0.88724834 265.13412223 0.15558936 265.13428011 C-1.28795326 265.1345999 -2.73149589 265.13492411 -4.17503851 265.1352527 C-17.72642683 265.13810634 -31.2778084 265.13482646 -44.82919561 265.12945233 C-56.35382591 265.12502197 -67.87844608 265.12572893 -79.40307617 265.13037109 C-92.84839256 265.13578457 -106.29370296 265.1377924 -119.73902029 265.13475883 C-121.18891776 265.13444038 -122.63881522 265.13412601 -124.08871269 265.13381577 C-124.8016078 265.13366149 -125.51450291 265.13350721 -126.2490009 265.13334826 C-131.17074824 265.1325003 -136.09249162 265.13392687 -141.01423836 265.13629532 C-174.02259249 265.15084727 -207.00302082 264.91081894 -240 264 C-240 263.34 -240 262.68 -240 262 C-235.50008666 261.83093851 -231.00005734 261.66518068 -226.5 261.5 C-225.2315625 261.45230469 -223.963125 261.40460938 -222.65625 261.35546875 C-216.43313793 261.12858446 -210.22729901 260.93709799 -204 261 C-203.70456299 260.37883301 -203.40912598 259.75766602 -203.10473633 259.11767578 C-197.32448568 246.98059088 -191.47858671 234.88469488 -185.4375 222.875 C-181.39172855 214.83130774 -177.42013435 206.76061096 -173.5625 198.625 C-169.48518201 190.02673744 -165.27451017 181.50180176 -161 173 C-153.99254607 159.05705236 -147.21470799 145.01293731 -140.6015625 130.87890625 C-137.06500479 123.32793806 -133.49317112 115.79476059 -129.6875 108.375 C-129.37401611 107.74078125 -129.06053223 107.1065625 -128.73754883 106.453125 C-126.51485041 102.21330251 -126.51485041 102.21330251 -124.15016174 101.23361206 C-121.51133885 100.94690765 -120.18625109 101.46589771 -117.77319336 102.55126953 C-116.94810776 102.91560089 -116.12302216 103.27993225 -115.27293396 103.65530396 C-114.38751419 104.06038177 -113.50209442 104.46545959 -112.58984375 104.8828125 C-111.66716202 105.29409393 -110.74448029 105.70537537 -109.7938385 106.12911987 C-106.83675881 107.45030487 -103.88718738 108.78740422 -100.9375 110.125 C-98.97768443 111.00365523 -97.01740258 111.88127122 -95.05664062 112.7578125 C-89.69774191 115.15719753 -84.34717353 117.57461345 -79 120 C-78.33139954 120.30305054 -77.66279907 120.60610107 -76.97393799 120.91833496 C-73.98099946 122.27533428 -70.98930576 123.63501612 -68 125 C-69.65368544 130.66936259 -72.24918631 135.73562791 -74.91015625 140.98046875 C-75.39649033 141.94793533 -75.8828244 142.91540192 -76.38389587 143.91218567 C-77.93962571 147.00589052 -79.50065171 150.09688012 -81.0625 153.1875 C-83.0978973 157.22122876 -85.13053541 161.25633037 -87.16015625 165.29296875 C-87.65761353 166.28193146 -88.1550708 167.27089417 -88.66760254 168.28982544 C-92.21035406 175.35894438 -95.6468751 182.4722966 -98.97901917 189.64311218 C-101.44842917 194.9360564 -104.11635887 200.10235522 -106.875 205.25 C-112.09011949 215.04354091 -116.87256252 225.02133968 -121.60791016 235.05419922 C-123.50535479 239.06938107 -125.41681239 243.07783143 -127.328125 247.08642578 C-129.22104468 251.05652564 -131.110599 255.02822469 -133 259 C-131.68 259 -130.36 259 -129 259 C-128.74089844 258.154375 -128.48179687 257.30875 -128.21484375 256.4375 C-126.92859025 252.79794025 -125.32094155 249.42544415 -123.5625 246 C-122.84481811 244.58345185 -122.12738432 243.16677798 -121.41015625 241.75 C-121.02359863 240.98945313 -120.63704102 240.22890625 -120.23876953 239.4453125 C-117.97324565 234.97320229 -115.73915732 230.48535232 -113.5 226 C-112.63554747 224.27076794 -111.77096295 222.54160185 -110.90625 220.8125 C-109.35260654 217.70574012 -107.79955554 214.598687 -106.24743652 211.49116516 C-102.53276066 204.05522283 -98.80846801 196.62424485 -95.0692215 189.20062733 C-92.18666053 183.47777411 -89.30971214 177.75211551 -86.43495178 172.02534008 C-84.51297554 168.19719878 -82.58869703 164.37024711 -80.65966797 160.5456543 C-78.77138202 156.80158958 -76.88891405 153.05465349 -75.01049805 149.30562782 C-74.29810442 147.88637574 -73.58360216 146.46818003 -72.86694336 145.05107689 C-71.87317322 143.08521086 -70.88689384 141.1157596 -69.90234375 139.14526367 C-69.34023193 138.02770187 -68.77812012 136.91014008 -68.19897461 135.75871277 C-66.80070205 133.04276923 -66.80070205 133.04276923 -67 130 C-66.34 129.67 -65.68 129.34 -65 129 C-63.81997838 126.87320293 -62.74022529 124.75368807 -61.68725586 122.56420898 C-60.96310901 121.0876071 -60.23854133 119.61121155 -59.51364136 118.13497925 C-59.11334087 117.31530041 -58.71304039 116.49562157 -58.30060959 115.65110397 C-55.88441996 110.72605193 -53.42151875 105.82426153 -50.96704102 100.91821289 C-49.83823838 98.65781295 -48.70962777 96.39731712 -47.58119202 94.13673401 C-43.21891958 85.40005768 -38.85474576 76.6643314 -34.49028111 67.92875004 C-31.17970054 61.30240202 -27.86989326 54.67566968 -24.56176758 48.0480957 C-21.65419365 42.22300274 -18.74522901 36.39860683 -15.8345713 30.57505411 C-14.29940903 27.50342618 -12.76495331 24.43144988 -11.23217964 21.35862923 C-9.53268172 17.95162681 -7.83008506 14.54617862 -6.12719727 11.14086914 C-5.61971954 10.12231842 -5.11224182 9.1037677 -4.58938599 8.05435181 C-3.89787697 6.67339577 -3.89787697 6.67339577 -3.19239807 5.26454163 C-2.79074716 4.460318 -2.38909624 3.65609438 -1.97527409 2.82750034 C-1 1 -1 1 0 0 Z " fill="#FD7618" transform="translate(242,32)"/>
<path d="M0 0 C5.0280365 0.63100857 9.13928967 2.85098944 13.625 5.0625 C20.45165934 8.36352936 27.32046416 11.50205402 34.3125 14.4375 C35.09383301 14.76693604 35.87516602 15.09637207 36.68017578 15.43579102 C40.74143094 17.12731836 44.80160256 18.67173118 49 20 C48.49062886 25.96648283 45.94521692 30.6029471 43.2578125 35.83984375 C42.77480682 36.79782364 42.29180115 37.75580353 41.79415894 38.74281311 C40.24530932 41.81159049 38.68572932 44.87474991 37.125 47.9375 C35.10310757 51.9239331 33.08575149 55.91264449 31.0703125 59.90234375 C30.56871109 60.89418167 30.06710968 61.88601959 29.55030823 62.90791321 C22.92441356 76.05339836 16.65124197 89.36740973 10.37564087 102.68260193 C7.01586476 109.80861212 3.5845438 116.88814437 0.02978516 123.91894531 C-3.08054029 130.09616023 -6.02703443 136.34828646 -8.94335938 142.61914062 C-10.4214227 145.77645557 -11.88906302 148.81714526 -13.69921875 151.80078125 C-15.24655425 154.17833166 -15.24655425 154.17833166 -16 158 C-36.13 158 -56.26 158 -77 158 C-75.46887545 153.40662634 -73.78184947 149.24266785 -71.65625 144.93359375 C-71.16832726 143.93266441 -71.16832726 143.93266441 -70.67054749 142.91151428 C-69.61704971 140.75185401 -68.55856626 138.59467977 -67.5 136.4375 C-66.0388319 133.44736188 -64.57998865 130.45609148 -63.12109375 127.46484375 C-62.76208481 126.72966522 -62.40307587 125.99448669 -62.03318787 125.23703003 C-59.16024032 119.3476838 -56.35171669 113.4294321 -53.5625 107.5 C-50.3346941 100.66014144 -46.91103928 93.95991263 -43.3203125 87.30419922 C-40.56003242 82.15418722 -38.0292876 76.92114766 -35.5625 71.625 C-32.6044487 65.27714013 -29.49406501 59.04834704 -26.1875 52.875 C-21.65446607 44.39996488 -17.47584427 35.77609929 -13.34521484 27.09887695 C-9.33614078 18.67746852 -5.21252324 10.32117605 -1 2 C-0.67 1.34 -0.34 0.68 0 0 Z " fill="#FC4000" transform="translate(264,135)"/>
<path d="M0 0 C4.40521265 0.18745586 7.51103531 1.12700533 11.40625 3.1796875 C18.81700915 6.97376781 26.4681459 10.21846989 34.09960938 13.5390625 C40.59633144 16.39396008 46.88550464 19.39255748 53 23 C46.70239533 37.82067865 39.81124321 52.36993199 32.96606445 66.94287109 C32.01128968 68.97595985 31.05728546 71.00940838 30.10351562 73.04296875 C22.51708641 89.21592142 14.89185808 105.37058206 7.23861694 121.51202393 C6.42803842 123.22201369 5.61797948 124.93224988 4.8085022 126.64276123 C-0.32933304 137.49665898 -5.58313292 148.2824997 -11 159 C-10.3601416 158.98976807 -9.7202832 158.97953613 -9.06103516 158.96899414 C-4.90109173 158.91072783 -1.05900825 158.952514 3 160 C3 160.33 3 160.66 3 161 C-48.81 161 -100.62 161 -154 161 C-152.515 160.01 -152.515 160.01 -151 159 C-151.33 158.01 -151.66 157.02 -152 156 C-151.34 156 -150.68 156 -150 156 C-149.8453125 154.88625 -149.8453125 154.88625 -149.6875 153.75 C-148.94086561 150.76346246 -147.83587847 149.42335957 -146 147 C-145.71253906 146.11957031 -145.42507812 145.23914063 -145.12890625 144.33203125 C-143.85189473 140.56285885 -142.18910808 137.15734867 -140.375 133.625 C-140.05015625 132.98433594 -139.7253125 132.34367188 -139.390625 131.68359375 C-138.59742593 130.12052499 -137.79922969 128.55999378 -137 127 C-136.34 127 -135.68 127 -135 127 C-134.9175 126.319375 -134.835 125.63875 -134.75 124.9375 C-134.07984855 122.31274015 -133.35885874 120.72195817 -132 118.4375 C-129.96884226 115.33072762 -129.96884226 115.33072762 -129.5 112.875 C-129 111 -129 111 -127.16699219 108.7746582 C-124.89491018 105.86544098 -123.40614897 103.06314272 -121.828125 99.73046875 C-121.54464203 99.13697128 -121.26115906 98.54347382 -120.96908569 97.93199158 C-120.36727599 96.67030678 -119.7683686 95.40723404 -119.17218018 94.1428833 C-117.92831468 91.50540108 -116.66987077 88.87496544 -115.41238403 86.24395752 C-114.79108553 84.94349557 -114.17053459 83.64267619 -113.55075073 82.3414917 C-108.60814779 71.96550468 -103.42702164 61.73515503 -97.98535156 51.61254883 C-95.71581781 47.37831948 -93.51698603 43.1128102 -91.375 38.8125 C-90.909729 37.87942017 -90.909729 37.87942017 -90.43505859 36.92749023 C-88.41237287 32.86116084 -86.40319158 28.78827778 -84.39767456 24.7134552 C-83.12979377 22.14080543 -81.85689664 19.57065449 -80.58331299 17.00082397 C-79.94559302 15.71094487 -79.31012549 14.41994965 -78.67694092 13.12783813 C-77.78230355 11.30257698 -76.87959276 9.48127971 -75.9765625 7.66015625 C-75.18886475 6.06119507 -75.18886475 6.06119507 -74.38525391 4.42993164 C-73 2 -73 2 -71 1 C-72.38097659 5.4748383 -74.14918679 9.53202474 -76.2578125 13.7109375 C-76.56572723 14.32393707 -76.87364197 14.93693665 -77.19088745 15.56851196 C-78.16515063 17.50593658 -79.14496917 19.4404876 -80.125 21.375 C-80.7907353 22.69642788 -81.45610353 24.01804076 -82.12109375 25.33984375 C-83.74315823 28.56204525 -85.37021374 31.78169593 -87 35 C-86.01 35 -85.02 35 -84 35 C-83.01 34.01 -83.01 34.01 -82 33 C-82.62191406 37.52615234 -84.42874271 41.23767874 -86.5 45.25 C-86.85384766 45.94673828 -87.20769531 46.64347656 -87.57226562 47.36132812 C-90.528902 53.15550694 -93.5806438 58.89920395 -96.64038086 64.6394043 C-100.23070225 71.39062705 -103.65002528 78.22098778 -107.04248047 85.07324219 C-108.24812511 87.49928693 -109.47088931 89.91662103 -110.69189453 92.33496094 C-117.30693511 105.46811843 -123.62395129 118.74986984 -130 132 C-136.435 145.365 -136.435 145.365 -143 159 C-122.87 159 -102.74 159 -82 159 C-82 158.34 -82 157.68 -82 157 C-80.35 157 -78.7 157 -77 157 C-76.9071875 156.33355469 -76.814375 155.66710937 -76.71875 154.98046875 C-75.79592294 151.15374566 -74.20665443 147.84575446 -72.5 144.3125 C-72.17902344 143.63638672 -71.85804688 142.96027344 -71.52734375 142.26367188 C-69.91000516 138.86320057 -68.27116863 135.49737307 -66.46875 132.19140625 C-62.43964671 124.78563969 -58.62412103 117.30032864 -55 109.6875 C-54.40348633 108.44238647 -54.40348633 108.44238647 -53.79492188 107.17211914 C-53.24674805 106.00990845 -53.24674805 106.00990845 -52.6875 104.82421875 C-52.36136719 104.13416748 -52.03523438 103.44411621 -51.69921875 102.7331543 C-50.87528771 101.00235631 -50.87528771 101.00235631 -51 99 C-50.34 99 -49.68 99 -49 99 C-48.7642627 98.20110352 -48.52852539 97.40220703 -48.28564453 96.57910156 C-46.67651105 92.09944017 -44.58949009 87.97006282 -42.4296875 83.734375 C-41.9885965 82.85976624 -41.54750549 81.98515747 -41.0930481 81.08404541 C-39.69088581 78.30406253 -38.28357998 75.52673607 -36.875 72.75 C-35.0136896 69.0803972 -33.15759028 65.40822884 -31.3046875 61.734375 C-30.87348602 60.88856873 -30.44228455 60.04276245 -29.99801636 59.17132568 C-29.6040567 58.39001282 -29.21009705 57.60869995 -28.80419922 56.80371094 C-28.45493378 56.11565369 -28.10566833 55.42759644 -27.74581909 54.71868896 C-26.86730635 53.0064726 -26.86730635 53.0064726 -27 51 C-26.34 51 -25.68 51 -25 51 C-24.77256104 50.21987549 -24.54512207 49.43975098 -24.31079102 48.63598633 C-22.57998036 43.83491293 -20.32170675 39.37770005 -18.02734375 34.82421875 C-17.54423233 33.85845413 -17.06112091 32.89268951 -16.56336975 31.8976593 C-15.54568958 29.86531086 -14.52607262 27.83393123 -13.50463867 25.8034668 C-11.93530215 22.68312999 -10.37245465 19.55960773 -8.81054688 16.43554688 C-7.82069104 14.46074771 -6.83046951 12.4861318 -5.83984375 10.51171875 C-5.13516212 9.10402473 -5.13516212 9.10402473 -4.41624451 7.66789246 C-3.98231888 6.80642105 -3.54839325 5.94494965 -3.10131836 5.05737305 C-2.52745644 3.9153669 -2.52745644 3.9153669 -1.94200134 2.75028992 C-1 1 -1 1 0 0 Z M2 4 C1.18779297 5.62441406 0.37560164 7.24883598 -0.43652344 8.87329102 C-1.15826942 10.31661729 -1.88028366 11.75980944 -2.60253906 13.20288086 C-4.37130673 16.7377455 -6.13745578 20.27377609 -7.890625 23.81640625 C-11.85111039 31.80434429 -15.92723477 39.72604224 -20.0625 47.625 C-27.54008463 61.2830203 -27.54008463 61.2830203 -33.9375 75.4453125 C-35.55299216 79.32962086 -37.75578108 82.86903132 -39.90234375 86.4765625 C-42.1957386 90.40062212 -44.0985496 94.38634305 -45.90625 98.5546875 C-47.96432187 103.15594817 -50.28418888 107.62987063 -52.5625 112.125 C-56.32065942 119.47307892 -56.32065942 119.47307892 -59.71484375 126.9921875 C-61 130 -61 130 -63 133 C-63.12375 134.258125 -63.2475 135.51625 -63.375 136.8125 C-63.82036376 141.09424283 -65.41370812 143.52697947 -68 147 C-69.49816211 149.29652481 -70.7494511 151.54521882 -72 154 C-71.67 154.99 -71.34 155.98 -71 157 C-72.485 157.99 -72.485 157.99 -74 159 C-55.52 159 -37.04 159 -18 159 C-18 158.67 -18 158.34 -18 158 C-21.3 157.67 -24.6 157.34 -28 157 C-26.62714844 156.92652344 -26.62714844 156.92652344 -25.2265625 156.8515625 C-23.44378906 156.73941406 -23.44378906 156.73941406 -21.625 156.625 C-20.44164062 156.55539062 -19.25828125 156.48578125 -18.0390625 156.4140625 C-14.89437681 156.29782654 -14.89437681 156.29782654 -13 154 C-11.27199534 151.05222734 -10.5726364 148.35401319 -10 145 C-9.66666667 143.33333333 -9.33333333 141.66666667 -9 140 C-8.34 140 -7.68 140 -7 140 C-6.7525 139.29875 -6.505 138.5975 -6.25 137.875 C-5 135 -5 135 -3.0625 132.125 C-1.28538589 129.43240286 -0.04847528 126.89314359 1.15234375 123.9140625 C2.4501457 120.98354196 4.08737028 118.25947392 5.71875 115.50390625 C6.80357284 113.38387136 7.63675699 111.36313641 8.44921875 109.1328125 C9.82166462 105.37753917 11.48195042 101.87212745 13.3125 98.3125 C23.28375579 78.67294917 32.71726922 58.75527652 41.78173828 38.68261719 C42.6513565 36.76771438 43.53106391 34.85738023 44.41748047 32.95019531 C44.87654785 31.95858398 45.33561523 30.96697266 45.80859375 29.9453125 C46.22810303 29.04570801 46.6476123 28.14610352 47.07983398 27.21923828 C48.12767097 25.09249255 48.12767097 25.09249255 48 23 C40.73826158 19.76680501 33.47480481 16.53754475 26.20861816 13.31436157 C22.71884503 11.76561477 19.23280467 10.20887713 15.75 8.64453125 C14.33339838 8.01287493 12.9167381 7.38135014 11.5 6.75 C10.86771484 6.46310303 10.23542969 6.17620605 9.58398438 5.88061523 C6.84528656 4.66687416 5.03945596 4 2 4 Z " fill="#FE9801" transform="translate(330,134)"/>
<path d="M0 0 C4.15488954 0.45096432 7.53721843 1.49334144 11.30859375 3.2578125 C12.29553223 3.71510742 13.2824707 4.17240234 14.29931641 4.64355469 C15.33491699 5.13243164 16.37051758 5.62130859 17.4375 6.125 C18.50919434 6.62418945 19.58088867 7.12337891 20.68505859 7.63769531 C22.82222772 8.63398901 24.9580059 9.6332727 27.09228516 10.63574219 C29.53005931 11.77951062 31.97171611 12.91358924 34.41796875 14.0390625 C42.7001022 17.85581609 50.86687349 21.87704373 59 26 C58.35583145 30.65653131 56.47810003 34.59176809 54.45703125 38.78125 C54.09642609 39.53991867 53.73582092 40.29858734 53.36428833 41.08024597 C52.18573461 43.5561018 50.99920516 46.02804234 49.8125 48.5 C48.99833478 50.20657511 48.18461745 51.91336397 47.37133789 53.62036133 C43.51271797 61.70978722 39.62604002 69.78566875 35.7265625 77.85546875 C35.40038437 78.53050446 35.07420624 79.20554016 34.73814392 79.90103149 C33.21407465 83.05323084 31.68680362 86.20381274 30.15356445 89.3515625 C29.61691162 90.45628906 29.08025879 91.56101562 28.52734375 92.69921875 C28.06062256 93.65658936 27.59390137 94.61395996 27.11303711 95.6003418 C25.91764908 98.05987194 25.91764908 98.05987194 25 101 C25.55524353 101.17337387 26.11048706 101.34674774 26.68255615 101.52537537 C32.03652002 103.24603956 37.07759501 105.28446744 42.140625 107.72265625 C42.87069763 108.06880478 43.60077026 108.41495331 44.35296631 108.77159119 C46.65431727 109.86372093 48.95228624 110.96274164 51.25 112.0625 C53.56259082 113.16452622 55.87587577 114.26506604 58.18988037 115.36412048 C59.621054 116.04437152 61.0513229 116.72653042 62.48052979 117.41090393 C65.94570373 119.06292976 69.41475101 120.62634635 73 122 C72.34 122.99 71.68 123.98 71 125 C71 124.34 71 123.68 71 123 C70.360625 123.0825 69.72125 123.165 69.0625 123.25 C66.09864053 123.00805229 64.57029041 122.48241963 61.921875 121.2578125 C61.12531494 120.89365234 60.32875488 120.52949219 59.50805664 120.15429688 C58.68039795 119.77337891 57.85273926 119.39246094 57 119 C55.39021136 118.2818593 53.7795301 117.56571621 52.16796875 116.8515625 C43.75951405 113.09780297 35.39838072 109.32054097 27.21484375 105.09375 C24.91800522 103.89682455 24.91800522 103.89682455 22 103 C21.74863281 103.83144531 21.49726563 104.66289062 21.23828125 105.51953125 C19.8459959 109.43286325 18.08806113 113.00258475 16.1875 116.6875 C13.7328642 121.48723411 11.41245276 126.2810035 9.3125 131.25 C7.54504966 135.24780434 5.85158179 137.68905093 2 140 C1.34 139.67 0.68 139.34 0 139 C1.38097659 134.5251617 3.14918679 130.46797526 5.2578125 126.2890625 C5.56572723 125.67606293 5.87364197 125.06306335 6.19088745 124.43148804 C7.16515063 122.49406342 8.14496917 120.5595124 9.125 118.625 C9.7907353 117.30357212 10.45610353 115.98195924 11.12109375 114.66015625 C12.74315823 111.43795475 14.37021374 108.21830407 16 105 C9.39424568 117.20054287 3.16007431 129.56911996 -3 142 C-3.66 142 -4.32 142 -5 142 C-3.3765689 137.78392521 -1.49275873 133.70682101 0.4375 129.625 C2.72346437 124.78760443 4.9176348 119.92890111 7 115 C7.66 115 8.32 115 9 115 C9.11472656 114.28328125 9.22945312 113.5665625 9.34765625 112.828125 C10.03432623 109.85118449 11.06353331 107.47347107 12.4375 104.75 C12.86933594 103.87859375 13.30117187 103.0071875 13.74609375 102.109375 C15 100 15 100 17 99 C17.68971129 97.00782963 18.35149108 95.00596127 19 93 C20.11198004 90.66177631 21.25011512 88.36127713 22.4375 86.0625 C25.89828266 79.25759027 29.22271508 72.3950449 32.5 65.5 C36.03585038 58.06734912 39.63499024 50.67488853 43.34570312 43.328125 C46.05053115 37.9526352 48.57358599 32.50609334 51 27 C49.76894531 26.62617187 48.53789062 26.25234375 47.26953125 25.8671875 C41.14949788 23.82597989 35.46343472 20.97618912 29.6875 18.125 C23.31869424 14.99331256 16.93507621 11.89251116 10.45703125 8.9921875 C9.50417236 8.56019043 8.55131348 8.12819336 7.56958008 7.68310547 C5.03741854 6.75983366 5.03741854 6.75983366 2.73706055 7.74267578 C0.65733789 9.24802668 -0.05602607 10.64006518 -1 13 C-1.99 13 -2.98 13 -4 13 C-4 13.99 -4 14.98 -4 16 C-4.66 16 -5.32 16 -6 16 C-6.12375 16.721875 -6.2475 17.44375 -6.375 18.1875 C-6.9904931 20.95721894 -7.88444374 23.3970354 -9 26 C-9.66 26 -10.32 26 -11 26 C-11.185625 27.0828125 -11.185625 27.0828125 -11.375 28.1875 C-11.9904931 30.95721894 -12.88444374 33.3970354 -14 36 C-14.99 35.67 -15.98 35.34 -17 35 C-15.62212068 30.54369143 -13.86841186 26.49127302 -11.77734375 22.32421875 C-11.47180069 21.71359085 -11.16625763 21.10296295 -10.85145569 20.47383118 C-10.21040683 19.19473461 -9.56743009 17.91660256 -8.92260742 16.6394043 C-7.9326685 14.67792681 -6.94928399 12.7132658 -5.96679688 10.74804688 C-1.14769955 1.14769955 -1.14769955 1.14769955 0 0 Z " fill="#FB8B00" transform="translate(242,32)"/>
<path d="M0 0 C3.84864133 0.62022838 6.99040184 1.77414036 10.5078125 3.44140625 C11.56838867 3.93914551 12.62896484 4.43688477 13.72167969 4.94970703 C14.84477539 5.48192871 15.96787109 6.01415039 17.125 6.5625 C25.28145547 10.37879186 33.44571908 14.14027211 41.75 17.625 C42.5042627 17.94283447 43.25852539 18.26066895 44.03564453 18.58813477 C47.97794622 20.22768172 51.92708621 21.7064016 56 23 C54.3784638 28.5143433 51.90000599 33.43893811 49.30859375 38.54296875 C48.84445572 39.46604324 48.38031769 40.38911774 47.90211487 41.34016418 C46.41771714 44.29121226 44.92802419 47.23954218 43.4375 50.1875 C41.49583509 54.03371973 39.55694858 57.88132141 37.62109375 61.73046875 C37.14514771 62.676409 36.66920166 63.62234924 36.17883301 64.59695435 C32.69564892 71.54653771 29.32339195 78.54289971 26.04649353 85.59208679 C23.56797011 90.90175513 20.89331973 96.08595616 18.125 101.25 C14.41376732 108.20848073 10.92823503 115.24274764 7.5625 122.375 C2.3511472 133.41701496 -3.24537912 144.23258456 -9 155 C-11.64 155 -14.28 155 -17 155 C-16.41358361 151.53001947 -15.52396968 148.64649368 -13.99609375 145.48046875 C-13.58955566 144.63186279 -13.18301758 143.78325684 -12.76416016 142.90893555 C-12.3263623 142.01086182 -11.88856445 141.11278809 -11.4375 140.1875 C-10.9842334 139.24753174 -10.5309668 138.30756348 -10.06396484 137.33911133 C-6.49266511 129.95469857 -2.84749512 122.60847528 0.84716797 115.28515625 C7.30684181 102.48072017 13.74152798 89.67331214 19.83422852 76.68945312 C23.94023532 67.95559328 28.23596458 59.31103342 32.69140625 50.75 C34.09476055 47.80086142 34.50084535 45.2088513 35 42 C35.66 41.01 36.32 40.02 37 39 C37.66 39 38.32 39 39 39 C39 38.01 39 37.02 39 36 C39.66 36 40.32 36 41 36 C40.95875 35.071875 40.9175 34.14375 40.875 33.1875 C41 30 41 30 43 27 C43.66 27 44.32 27 45 27 C45.33 25.02 45.66 23.04 46 21 C45.29488281 20.88269531 44.58976562 20.76539063 43.86328125 20.64453125 C36.5805668 19.00517534 29.67523772 15.42784485 23.0546875 12.03515625 C15.88259702 8.4218407 8.66659949 5.38795722 1 3 C1 3.66 1 4.32 1 5 C0.34 5 -0.32 5 -1 5 C-0.67 3.35 -0.34 1.7 0 0 Z " fill="#FC4900" transform="translate(117,136)"/>
<path d="M0 0 C0.66 0 1.32 0 2 0 C1.33333333 2.66666667 0.66666667 5.33333333 0 8 C-0.66 8 -1.32 8 -2 8 C-2.226875 8.94875 -2.45375 9.8975 -2.6875 10.875 C-3.85017606 14.97758552 -5.70782924 18.60927956 -7.68359375 22.375 C-8.64900783 24.30009869 -9.53107763 26.26758643 -10.36328125 28.25390625 C-12.21204085 32.63208096 -14.49155228 36.76033686 -16.75 40.9375 C-20.41015989 47.78096089 -23.76845391 54.6720104 -26.75488281 61.83569336 C-28.25954414 65.42757294 -29.96387032 68.68609507 -32 72 C-33.20850333 74.32549415 -34.39677053 76.65349939 -35.5625 79 C-35.86607422 79.60328125 -36.16964844 80.2065625 -36.48242188 80.828125 C-38.14948603 84.1695172 -39.62106688 87.53264121 -41 91 C-41.81880802 92.63236726 -42.65242931 94.25738034 -43.5 95.875 C-45.0148952 98.85163617 -46.3015859 101.63716829 -47.125 104.875 C-48 108 -48 108 -49.44921875 109.9296875 C-51.02466999 112.03293475 -51.80511835 113.78793997 -52.6875 116.25 C-55.6813532 123.69417553 -59.41171611 130.82343223 -63 138 C-40.23 138 -17.46 138 6 138 C6.99 135.03 6.99 135.03 8 132 C9.08961554 129.68107463 10.20550939 127.40242908 11.375 125.125 C12.09142319 123.711078 12.80754939 122.2970055 13.5234375 120.8828125 C13.9162793 120.10969727 14.30912109 119.33658203 14.71386719 118.54003906 C17.16281152 113.70351347 19.57831326 108.85021334 22 104 C23.04023546 101.91920628 24.08059786 99.83847601 25.12109375 97.7578125 C25.86335205 96.2732959 25.86335205 96.2732959 26.62060547 94.75878906 C27.80045573 92.39908854 28.98030599 90.03938802 30.16015625 87.6796875 C30.48024658 87.039104 30.80033691 86.39852051 31.13012695 85.73852539 C31.74584706 84.50789131 32.36284743 83.27789686 32.98120117 82.04858398 C34.9626505 78.10368448 36.90384562 74.14110735 38.828125 70.16796875 C39.32175537 69.15814941 39.81538574 68.14833008 40.32397461 67.10791016 C41.30166486 65.10762999 42.27149264 63.10348392 43.23266602 61.09521484 C43.67795654 60.18852051 44.12324707 59.28182617 44.58203125 58.34765625 C44.97624268 57.53304932 45.3704541 56.71844238 45.77661133 55.87915039 C47 54 47 54 50 53 C47.5425387 61.19153768 43.95732291 68.62304925 39.83984375 76.109375 C38.76507078 78.25921218 38.76507078 78.25921218 38.625 81.9375 C38.18499726 86.07200849 36.72747665 87.81794391 34 91 C32.66366757 93.46967765 31.44769385 95.98330262 30.2265625 98.51171875 C29.18243521 100.62990055 28.07625409 102.6563719 26.875 104.6875 C25.32066416 107.43349332 24.07970466 110.14536936 22.85644531 113.04467773 C21.34745359 116.48980734 19.63544928 119.83255384 17.9375 123.1875 C17.58623047 123.88552734 17.23496094 124.58355469 16.87304688 125.30273438 C16.20508957 126.62981023 15.5363599 127.95649773 14.86669922 129.28271484 C13.90613264 131.18598958 12.95145714 133.09215589 12 135 C14.64 135 17.28 135 20 135 C20 135.66 20 136.32 20 137 C15.71 137 11.42 137 7 137 C7 137.66 7 138.32 7 139 C9.31 139 11.62 139 14 139 C14 139.33 14 139.66 14 140 C-12.73 140 -39.46 140 -67 140 C-65.87507968 132.12555775 -65.87507968 132.12555775 -63.94970703 128.34765625 C-63.3123613 127.0783728 -63.3123613 127.0783728 -62.66213989 125.78344727 C-62.19871185 124.88553467 -61.73528381 123.98762207 -61.2578125 123.0625 C-60.77480682 122.10593506 -60.29180115 121.14937012 -59.79415894 120.16381836 C-58.24718547 117.1043307 -56.68676103 114.0519615 -55.125 111 C-53.10273336 107.02287562 -51.08599746 103.04296344 -49.0703125 99.0625 C-48.5670343 98.07080811 -48.0637561 97.07911621 -47.54522705 96.05737305 C-43.51043713 88.08050244 -39.63142047 80.03542792 -35.79544067 71.96142578 C-32.29246595 64.59048471 -28.683662 57.28259086 -25 50 C-20.10364416 40.26673635 -15.3214832 30.48599112 -10.64306641 20.64599609 C-1.57598312 1.57598312 -1.57598312 1.57598312 0 0 Z " fill="#FC9203" transform="translate(106,155)"/>
<path d="M0 0 C1.25941406 0.06058594 2.51882813 0.12117188 3.81640625 0.18359375 C14.87302267 0.68055417 25.91821055 1.03485688 36.984375 1.21875 C38.55970253 1.24631126 38.55970253 1.24631126 40.16685486 1.27442932 C44.4555055 1.34919826 48.74403169 1.42382129 53.0329895 1.47872925 C56.09119423 1.51790035 59.14903061 1.56858935 62.20703125 1.62109375 C63.13525696 1.62947266 64.06348267 1.63785156 65.01983643 1.64648438 C66.31096344 1.67150024 66.31096344 1.67150024 67.62817383 1.69702148 C68.37883621 1.70732895 69.1294986 1.71763641 69.90290833 1.72825623 C72.27879047 2.03612602 73.92865584 2.82316023 76 4 C58.86602586 4.98164546 41.78374762 5.12108869 24.625 5.0625 C22.02734462 5.05746893 19.42968829 5.0529089 16.83203125 5.04882812 C10.55466613 5.03796374 4.27733775 5.0213561 -2 5 C-2.33 5.66 -2.66 6.32 -3 7 C-3 6.34 -3 5.68 -3 5 C-4.4094874 5.24357144 -4.4094874 5.24357144 -5.8474493 5.49206352 C-10.70844893 6.18091866 -15.53944582 6.13832824 -20.44081116 6.12698364 C-21.48014327 6.12854363 -22.51947538 6.13010362 -23.59030241 6.13171089 C-27.06810998 6.13569437 -30.54587376 6.1325411 -34.02368164 6.12939453 C-36.52147446 6.13075007 -39.01926708 6.13253086 -41.51705933 6.13470459 C-47.60422555 6.1387951 -53.6913747 6.13818892 -59.77854026 6.13529195 C-64.74985202 6.13302553 -69.72116033 6.13273078 -74.69247246 6.13381577 C-75.40261206 6.133969 -76.11275166 6.13412223 -76.84441064 6.13428011 C-78.28795326 6.1345999 -79.73149589 6.13492411 -81.17503851 6.1352527 C-94.72642683 6.13810634 -108.2778084 6.13482646 -121.82919561 6.12945233 C-133.35382591 6.12502197 -144.87844608 6.12572893 -156.40307617 6.13037109 C-169.84839256 6.13578457 -183.29370296 6.1377924 -196.73902029 6.13475883 C-198.18891776 6.13444038 -199.63881522 6.13412601 -201.08871269 6.13381577 C-201.8016078 6.13366149 -202.51450291 6.13350721 -203.2490009 6.13334826 C-208.17074824 6.1325003 -213.09249162 6.13392687 -218.01423836 6.13629532 C-251.02259249 6.15084727 -284.00302082 5.91081894 -317 5 C-317 4.34 -317 3.68 -317 3 C-312.52093162 2.83062157 -308.04173204 2.66498913 -303.5625 2.5 C-302.30244141 2.45230469 -301.04238281 2.40460938 -299.74414062 2.35546875 C-293.15744354 2.11470175 -286.59105693 1.9426241 -280 2 C-280 2.66 -280 3.32 -280 4 C-255.58 3.67 -231.16 3.34 -206 3 C-206 2.34 -206 1.68 -206 1 C-183.56 1 -161.12 1 -138 1 C-138.66 1.66 -139.32 2.32 -140 3 C-90.83 3 -41.66 3 9 3 C6.03 2.67 3.06 2.34 0 2 C0 1.34 0 0.68 0 0 Z " fill="#FE8904" transform="translate(319,291)"/>
<path d="M0 0 C4.40521265 0.18745586 7.51103531 1.12700533 11.40625 3.1796875 C18.81700915 6.97376781 26.4681459 10.21846989 34.09960938 13.5390625 C40.59633144 16.39396008 46.88550464 19.39255748 53 23 C45.20102129 41.3539875 36.54814775 59.33185384 28.0625 77.375 C27.73379913 78.07396896 27.40509827 78.77293793 27.06643677 79.49308777 C25.4009778 83.03352921 23.73338241 86.57294095 22.06201172 90.1105957 C18.95004677 96.70151644 15.85371683 103.29834325 12.81575012 109.92376709 C11.44093631 112.92137796 10.05904732 115.91570501 8.67697144 118.90997314 C8.02126432 120.33641874 7.36929733 121.76458998 6.72122192 123.19451904 C5.82723179 125.16659803 4.92090198 127.1325463 4.01171875 129.09765625 C3.50084717 130.21664307 2.98997559 131.33562988 2.46362305 132.48852539 C1 135 1 135 -2 136 C-2.11090397 127.95154048 -0.19697369 122.72518337 4.2109375 116.01953125 C5.97334282 113.04499126 7.10306721 110.22241191 8.2578125 106.98461914 C9.3835031 103.97450765 10.84369646 101.16868782 12.3125 98.3125 C16.23572642 90.58524816 20.04210769 82.80271432 23.8125 75 C24.11306305 74.37799713 24.4136261 73.75599426 24.72329712 73.11514282 C30.25712473 61.64799805 35.60207183 50.0993961 40.86181641 38.50390625 C42.45635748 34.9960527 44.07061027 31.49760762 45.6875 28 C46.14511719 27.01 46.60273438 26.02 47.07421875 25 C47.37972656 24.34 47.68523437 23.68 48 23 C46.79601562 22.62875 45.59203125 22.2575 44.3515625 21.875 C37.83222741 19.70103777 31.63133111 16.8276431 25.375 14 C21.90125291 12.44020467 18.42708962 10.88135205 14.95214844 9.32421875 C13.20332847 8.53976626 11.45597082 7.75201743 9.71191406 6.95703125 C6.92779463 5.71185028 5.09463125 5 2 5 C1.64284912 5.74983154 1.28569824 6.49966309 0.91772461 7.2722168 C-0.44216423 10.12322913 -1.80499995 12.97281043 -3.16967773 15.8215332 C-4.03653337 17.63323067 -4.90015309 19.44647533 -5.76367188 21.25976562 C-9.62193657 29.30700343 -13.69944806 37.18103708 -18 45 C-19.32 45 -20.64 45 -22 45 C-20.42933247 39.73871014 -18.14708131 35.01967602 -15.68359375 30.13671875 C-15.26707047 29.3041304 -14.85054718 28.47154205 -14.42140198 27.61372375 C-13.54495818 25.8638451 -12.66658002 24.11493409 -11.78637695 22.36694336 C-10.43431753 19.68117826 -9.088765 16.99222827 -7.74414062 14.30273438 C-6.89100371 12.60137254 -6.03750101 10.90019407 -5.18359375 9.19921875 C-4.57734413 7.98838875 -4.57734413 7.98838875 -3.95884705 6.75309753 C-1.1160858 1.1160858 -1.1160858 1.1160858 0 0 Z " fill="#FC9903" transform="translate(330,134)"/>
<path d="M0 0 C0.495 0.99 0.495 0.99 1 2 C-0.05698038 4.4681282 -1.17536623 6.81268426 -2.40234375 9.1953125 C-2.75889542 9.90275604 -3.11544708 10.61019958 -3.48280334 11.33908081 C-4.62693905 13.6049044 -5.78205747 15.8649247 -6.9375 18.125 C-7.7136187 19.6571835 -8.48901889 21.18973118 -9.26367188 22.72265625 C-11.16745959 26.48605244 -13.08111768 30.24427934 -15 34 C-14.01 34 -13.02 34 -12 34 C-11.34 33.34 -10.68 32.68 -10 32 C-10.62191406 36.52615234 -12.42874271 40.23767874 -14.5 44.25 C-14.85384766 44.94673828 -15.20769531 45.64347656 -15.57226562 46.36132812 C-18.528902 52.15550694 -21.5806438 57.89920395 -24.64038086 63.6394043 C-29.33755892 72.47195492 -33.75902517 81.44084776 -38.171875 90.41796875 C-38.53015381 91.14298584 -38.88843262 91.86800293 -39.25756836 92.61499023 C-39.94164895 93.99945789 -40.62236196 95.38559659 -41.29907227 96.77368164 C-42.944338 100.09885478 -44.64280022 103.12784273 -47 106 C-46.44271087 102.65626525 -45.64826111 99.96687001 -44 97 C-45.98 97.495 -45.98 97.495 -48 98 C-47.36054477 92.93510856 -45.14196455 88.7229185 -42.9375 84.1875 C-42.32588013 82.91519531 -42.32588013 82.91519531 -41.7019043 81.6171875 C-40.47552204 79.07435644 -39.23979448 76.53631492 -38 74 C-37.51418457 73.00347412 -37.51418457 73.00347412 -37.01855469 71.98681641 C-32.07576155 61.88434702 -26.85143306 51.92702108 -21.65478516 41.95361328 C-16.219082 31.49050223 -10.94326459 20.95025078 -5.71069336 10.38427734 C-5.24817169 9.4528894 -5.24817169 9.4528894 -4.77630615 8.50268555 C-3.93867656 6.81558747 -3.10341491 5.12731432 -2.26831055 3.43896484 C-1 1 -1 1 0 0 Z " fill="#FEC12D" transform="translate(258,135)"/>
<path d="M0 0 C0.66 0.33 1.32 0.66 2 1 C0.52947856 5.86403246 -1.49505345 10.19204281 -3.8125 14.6875 C-6.15657964 19.29059187 -8.43719423 23.886883 -10.5 28.625 C-12.94737144 34.13365979 -15.96091801 39.2708521 -19.03515625 44.4453125 C-20.90903574 47.71104461 -22.40197392 51.09036602 -23.8996582 54.54150391 C-25.96084036 59.14680772 -28.28194099 63.62543553 -30.5625 68.125 C-34.32065942 75.47307892 -34.32065942 75.47307892 -37.71484375 82.9921875 C-39 86 -39 86 -41 89 C-41.12375 90.258125 -41.2475 91.51625 -41.375 92.8125 C-41.82036376 97.09424283 -43.41370812 99.52697947 -46 103 C-48.88096079 107.21097654 -48.88096079 107.21097654 -50 112 C-48.02 112.33 -46.04 112.66 -44 113 C-44 113.33 -44 113.66 -44 114 C-46.97 114 -49.94 114 -53 114 C-55.34055872 106.97832384 -51.07699167 99.30050675 -48 93 C-47.1899273 91.37985459 -46.33582207 89.78177569 -45.46875 88.19140625 C-41.43964671 80.78563969 -37.62412103 73.30032864 -34 65.6875 C-33.60232422 64.85742432 -33.20464844 64.02734863 -32.79492188 63.17211914 C-32.42947266 62.39731201 -32.06402344 61.62250488 -31.6875 60.82421875 C-31.36136719 60.13416748 -31.03523438 59.44411621 -30.69921875 58.7331543 C-29.87528771 57.00235631 -29.87528771 57.00235631 -30 55 C-29.34 55 -28.68 55 -28 55 C-27.64639404 53.80165527 -27.64639404 53.80165527 -27.28564453 52.57910156 C-25.67651105 48.09944017 -23.58949009 43.97006282 -21.4296875 39.734375 C-20.9885965 38.85976624 -20.54750549 37.98515747 -20.0930481 37.08404541 C-18.69088581 34.30406253 -17.28357998 31.52673607 -15.875 28.75 C-14.0136896 25.0803972 -12.15759028 21.40822884 -10.3046875 17.734375 C-9.87348602 16.88856873 -9.44228455 16.04276245 -8.99801636 15.17132568 C-8.40707687 13.99935638 -8.40707687 13.99935638 -7.80419922 12.80371094 C-7.45493378 12.11565369 -7.10566833 11.42759644 -6.74581909 10.71868896 C-5.86730635 9.0064726 -5.86730635 9.0064726 -6 7 C-5.34 7 -4.68 7 -4 7 C-3.71125 6.030625 -3.4225 5.06125 -3.125 4.0625 C-2 1 -2 1 0 0 Z " fill="#FDBA32" transform="translate(309,178)"/>
<path d="M0 0 C0.61328125 1.78515625 0.61328125 1.78515625 1 4 C0.06440845 5.77439776 -0.88089713 7.54731407 -1.94140625 9.25 C-3.24460162 11.40435987 -4.14103394 13.63784334 -5 16 C-4.34 16.33 -3.68 16.66 -3 17 C-3.55105909 20.9492568 -4.38935371 24.34920174 -6 28 C-5.44475647 28.17337387 -4.88951294 28.34674774 -4.31744385 28.52537537 C1.03652002 30.24603956 6.07759501 32.28446744 11.140625 34.72265625 C11.87069763 35.06880478 12.60077026 35.41495331 13.35296631 35.77159119 C15.65431727 36.86372093 17.95228624 37.96274164 20.25 39.0625 C22.56259082 40.16452622 24.87587577 41.26506604 27.18988037 42.36412048 C28.621054 43.04437152 30.0513229 43.72653042 31.48052979 44.41090393 C34.94570373 46.06292976 38.41475101 47.62634635 42 49 C41.34 49.99 40.68 50.98 40 52 C40 51.34 40 50.68 40 50 C39.360625 50.0825 38.72125 50.165 38.0625 50.25 C35.09864053 50.00805229 33.57029041 49.48241963 30.921875 48.2578125 C30.12531494 47.89365234 29.32875488 47.52949219 28.50805664 47.15429688 C27.68039795 46.77337891 26.85273926 46.39246094 26 46 C24.39021136 45.2818593 22.7795301 44.56571621 21.16796875 43.8515625 C12.75951405 40.09780297 4.39838072 36.32054097 -3.78515625 32.09375 C-6.08199478 30.89682455 -6.08199478 30.89682455 -9 30 C-9.25136719 30.83144531 -9.50273437 31.66289062 -9.76171875 32.51953125 C-11.1540041 36.43286325 -12.91193887 40.00258475 -14.8125 43.6875 C-17.2671358 48.48723411 -19.58754724 53.2810035 -21.6875 58.25 C-23.45495034 62.24780434 -25.14841821 64.68905093 -29 67 C-29.66 66.67 -30.32 66.34 -31 66 C-29.63567688 61.57251914 -27.89188732 57.58418156 -25.77734375 53.46484375 C-25.15030015 52.23116577 -24.5233498 50.9974404 -23.89648438 49.76367188 C-22.9153353 47.84490929 -21.93220251 45.9271936 -20.94702148 44.01049805 C-19.98942324 42.14371811 -19.03931468 40.2732672 -18.08984375 38.40234375 C-17.52128662 37.29366943 -16.95272949 36.18499512 -16.36694336 35.04272461 C-14.93398395 32.15779361 -14.93398395 32.15779361 -14.50439453 29.49951172 C-13.83542882 26.18447254 -12.41288141 23.59565745 -10.83984375 20.60546875 C-10.53051407 20.01325027 -10.22118439 19.4210318 -9.90248108 18.81086731 C-8.92003983 16.93325402 -7.92893752 15.06037579 -6.9375 13.1875 C-6.26699947 11.9098087 -5.5970714 10.63181682 -4.92773438 9.35351562 C-3.29176712 6.23217084 -1.64800405 3.11500977 0 0 Z " fill="#FD9802" transform="translate(273,105)"/>
<path d="M0 0 C1.25941406 0.06058594 2.51882813 0.12117188 3.81640625 0.18359375 C14.87302267 0.68055417 25.91821055 1.03485688 36.984375 1.21875 C38.55970253 1.24631126 38.55970253 1.24631126 40.16685486 1.27442932 C44.4555055 1.34919826 48.74403169 1.42382129 53.0329895 1.47872925 C56.09119423 1.51790035 59.14903061 1.56858935 62.20703125 1.62109375 C63.13525696 1.62947266 64.06348267 1.63785156 65.01983643 1.64648438 C66.31096344 1.67150024 66.31096344 1.67150024 67.62817383 1.69702148 C68.37883621 1.70732895 69.1294986 1.71763641 69.90290833 1.72825623 C72.27879047 2.03612602 73.92865584 2.82316023 76 4 C58.86602586 4.98164546 41.78374762 5.12108869 24.625 5.0625 C22.02734462 5.05746893 19.42968829 5.0529089 16.83203125 5.04882812 C10.55466613 5.03796374 4.27733775 5.0213561 -2 5 C-2.33 5.66 -2.66 6.32 -3 7 C-3 6.34 -3 5.68 -3 5 C-3.90194595 5.16265854 -4.80389191 5.32531708 -5.73316956 5.49290466 C-11.22469488 6.27051996 -16.73423753 6.13092546 -22.26928711 6.11352539 C-24.09961487 6.11374443 -24.09961487 6.11374443 -25.96691895 6.1139679 C-29.29493533 6.11339267 -32.62288885 6.1083947 -35.95089412 6.10139394 C-39.43556834 6.09512139 -42.92024349 6.09455352 -46.40492249 6.09336853 C-52.99560889 6.09026669 -59.5862786 6.08206881 -66.17695767 6.07201904 C-73.6836254 6.06082222 -81.19029395 6.05533847 -88.69696796 6.05032361 C-104.13132162 6.0398852 -119.56565865 6.02230804 -135 6 C-131.64911958 3.98958648 -129.08384005 3.74238624 -125.20404053 3.7215271 C-124.0205603 3.71036362 -122.83708008 3.69920013 -121.61773682 3.68769836 C-120.32301453 3.68553818 -119.02829224 3.68337799 -117.69433594 3.68115234 C-116.31444716 3.6718522 -114.934564 3.6616834 -113.5546875 3.65071106 C-109.81125402 3.62340655 -106.06785819 3.60826035 -102.32435131 3.59528303 C-98.4111976 3.57965445 -94.49812078 3.55286336 -90.58502197 3.5272522 C-83.17616374 3.48045956 -75.76729105 3.44371781 -68.35836053 3.41057932 C-59.92307243 3.37236136 -51.48786155 3.32295035 -43.05263853 3.27259517 C-25.70181487 3.16926811 -8.35094652 3.08001023 9 3 C6.03 2.67 3.06 2.34 0 2 C0 1.34 0 0.68 0 0 Z " fill="#FD7E04" transform="translate(319,291)"/>
<path d="M0 0 C1 3 1 3 -0.08203125 5.6875 C-0.65308594 6.780625 -1.22414063 7.87375 -1.8125 9 C-2.12151749 9.59216309 -2.43053497 10.18432617 -2.74891663 10.79443359 C-4.4911686 14.12903958 -6.24124846 17.4589265 -8.01416016 20.77734375 C-15.72477531 35.24822698 -23.03597394 49.91857211 -30.35913086 64.58789062 C-32.19396859 68.26326497 -34.03243395 71.93681102 -35.87185574 75.60989285 C-43.08387416 90.01482753 -50.26372362 104.42667334 -57.07252502 119.02796936 C-58.78952416 122.67871466 -60.55196572 126.3075993 -62.3125 129.9375 C-62.62436752 130.59141724 -62.93623505 131.24533447 -63.2575531 131.91906738 C-65.06049327 135.5677914 -66.94114774 138.30577914 -70 141 C-69.45266163 135.52715552 -67.46050971 131.44281911 -64.96484375 126.64453125 C-64.56672989 125.86107834 -64.16861603 125.07762543 -63.75843811 124.27043152 C-62.49242168 121.78047143 -61.21599684 119.29607219 -59.9375 116.8125 C-58.6561836 114.31786131 -57.3773406 111.8220958 -56.10585022 109.32243347 C-55.31607017 107.77017968 -54.5205442 106.22083328 -53.71873474 104.67475891 C-51.57951378 100.54972056 -51.57951378 100.54972056 -51 96 C-50.01 95.505 -50.01 95.505 -49 95 C-47.74401325 92.7179844 -46.58219554 90.44333631 -45.45263672 88.09936523 C-44.7295372 86.62569018 -44.0063697 85.15204848 -43.28314209 83.67843628 C-42.90720665 82.90703686 -42.53127121 82.13563744 -42.14394379 81.34086227 C-40.2979176 77.56332259 -38.41880593 73.8023488 -36.54345703 70.03930664 C-35.76170999 68.46648535 -34.9801484 66.89357188 -34.19876099 65.3205719 C-31.20059685 59.28758859 -28.19646756 53.25757903 -25.19166756 47.2278986 C-22.91598171 42.66072714 -20.64261729 38.09242737 -18.37402344 33.52172852 C-16.15901027 29.05922832 -13.93823123 24.59964269 -11.71334457 20.14205742 C-10.86996422 18.44975167 -10.02869772 16.75639075 -9.18957901 15.06196785 C-8.0252948 12.71177253 -6.85367643 10.36537906 -5.68017578 8.01977539 C-5.33525589 7.31914978 -4.990336 6.61852417 -4.63496399 5.89666748 C-2.22811882 1.11405941 -2.22811882 1.11405941 0 0 Z " fill="#FB9702" transform="translate(226,66)"/>
<path d="M0 0 C1 2 1 2 0.328125 4.2421875 C-0.02765625 5.11101562 -0.3834375 5.97984375 -0.75 6.875 C-1.09546875 7.73867187 -1.4409375 8.60234375 -1.796875 9.4921875 C-2.97512085 11.9481415 -4.3481367 13.84652376 -6 16 C-8.33341073 20.28060174 -10.11110617 24.36104901 -10.5 29.25 C-11.08155273 33.61164549 -12.1866709 34.71778272 -15 38 C-16.33633243 40.46967765 -17.55230615 42.98330262 -18.7734375 45.51171875 C-19.81756479 47.62990055 -20.92374591 49.6563719 -22.125 51.6875 C-23.67933584 54.43349332 -24.92029534 57.14536936 -26.14355469 60.04467773 C-27.65254641 63.48980734 -29.36455072 66.83255384 -31.0625 70.1875 C-31.41376953 70.88552734 -31.76503906 71.58355469 -32.12695312 72.30273438 C-32.79491043 73.62981023 -33.4636401 74.95649773 -34.13330078 76.28271484 C-35.09386736 78.18598958 -36.04854286 80.09215589 -37 82 C-34.36 82 -31.72 82 -29 82 C-29 82.66 -29 83.32 -29 84 C-33.29 84 -37.58 84 -42 84 C-41.09922271 79.49611354 -39.76374639 76.18028152 -37.6875 72.1875 C-36.96182739 70.76453305 -36.23659592 69.34134107 -35.51171875 67.91796875 C-35.11259277 67.13856934 -34.7134668 66.35916992 -34.30224609 65.55615234 C-31.83805241 60.71923674 -29.42354444 55.85737104 -27 51 C-25.95982912 48.91917399 -24.91946778 46.83844318 -23.87890625 44.7578125 C-23.38406738 43.76813477 -22.88922852 42.77845703 -22.37939453 41.75878906 C-21.19954427 39.39908854 -20.01969401 37.03938802 -18.83984375 34.6796875 C-18.51967285 34.039104 -18.19950195 33.39852051 -17.86962891 32.73852539 C-17.25420092 31.50815298 -16.63800511 30.2781643 -16.02099609 29.04858398 C-14.04016894 25.09774542 -12.08331078 21.13580088 -10.13671875 17.16796875 C-9.63857666 16.15814941 -9.14043457 15.14833008 -8.62719727 14.10791016 C-7.63975596 12.1060667 -6.6570254 10.10189143 -5.67944336 8.09521484 C-5.23093018 7.18852051 -4.78241699 6.28182617 -4.3203125 5.34765625 C-3.92086426 4.53304932 -3.52141602 3.71844238 -3.10986328 2.87915039 C-2 1 -2 1 0 0 Z " fill="#FEA82F" transform="translate(155,208)"/>
<path d="M0 0 C4.36766598 0.66263376 8.16797474 2.23104797 12.171875 4.01953125 C12.85372864 4.31937424 13.53558228 4.61921722 14.23809814 4.92814636 C16.41083164 5.88491925 18.58042375 6.8485924 20.75 7.8125 C22.19250705 8.44902406 23.63521365 9.0850961 25.078125 9.72070312 C29.05491453 11.47411201 33.02808812 13.23557458 37 15 C37.99708984 15.44263184 38.99417969 15.88526367 40.02148438 16.34130859 C42.01469457 17.22670286 44.00742762 18.11317126 46 19 C43.76891164 26.30795268 40.75007443 32.96667974 37.375 39.8125 C32.98022946 48.81916606 28.7352483 57.86621565 24.76708984 67.06958008 C22.21251527 72.89374237 22.21251527 72.89374237 20 74 C20.63197277 69.91474745 21.95972307 66.65542659 23.75 62.9375 C24.37443438 61.62665265 24.99805618 60.31541807 25.62109375 59.00390625 C25.98444824 58.24223145 26.34780273 57.48055664 26.72216797 56.69580078 C29.15205139 51.56955455 31.5385255 46.42298739 33.92810059 41.27786255 C34.80242267 39.39668226 35.67891265 37.51652367 36.55566406 35.63647461 C37.10061523 34.46479736 37.64556641 33.29312012 38.20703125 32.0859375 C38.6966333 31.0345459 39.18623535 29.9831543 39.69067383 28.89990234 C42.07051441 24.12945079 42.07051441 24.12945079 43 19 C42.28457031 18.86722656 41.56914062 18.73445313 40.83203125 18.59765625 C38.05811678 18.01226465 35.39700725 17.26841556 32.6875 16.4375 C31.80449219 16.16808594 30.92148437 15.89867187 30.01171875 15.62109375 C29.34785156 15.41613281 28.68398438 15.21117187 28 15 C28 14.34 28 13.68 28 13 C27.19949219 12.75636719 26.39898437 12.51273438 25.57421875 12.26171875 C20.3450606 10.41579735 15.38023858 8.02555636 10.36914062 5.65820312 C9.59376953 5.30306641 8.81839844 4.94792969 8.01953125 4.58203125 C6.96922729 4.09053589 6.96922729 4.09053589 5.89770508 3.58911133 C3.81082861 2.73901684 3.81082861 2.73901684 1 4 C-0.59737847 6.73470501 -0.59737847 6.73470501 -2 10 C-2.47179687 11.01578125 -2.94359375 12.0315625 -3.4296875 13.078125 C-3.90664063 14.12484375 -4.38359375 15.1715625 -4.875 16.25 C-8.05189253 23.15423674 -11.25251295 30.04276557 -15.0625 36.625 C-16.78656439 39.62820894 -18.33658016 42.65179445 -19.859375 45.7578125 C-21.21358464 48.41985473 -22.66917291 51.01723205 -24.125 53.625 C-25.71229098 56.50270709 -27.02141424 59.06424272 -28.0625 62.1875 C-29.39818302 66.19454905 -31.67171033 69.49867889 -34 73 C-34.703125 71.43359375 -34.703125 71.43359375 -35 69 C-34.01975781 66.55847084 -32.98623403 64.36983105 -31.75 62.0625 C-31.39228516 61.3715625 -31.03457031 60.680625 -30.66601562 59.96875 C-29.45610007 57.63930307 -28.22857365 55.31965519 -27 53 C-26.09810662 51.28039435 -25.19708816 49.56032959 -24.296875 47.83984375 C-22.89194834 45.15629814 -21.48597691 42.47333858 -20.07592773 39.79248047 C-16.28155309 32.57218094 -12.6050333 25.29956026 -8.98681641 17.98974609 C-7.16761496 14.32163828 -5.33255446 10.6614495 -3.5 7 C-2.82285447 5.64586443 -2.14576503 4.29170081 -1.46875 2.9375 C-0.9840625 1.968125 -0.499375 0.99875 0 0 Z " fill="#FD5003" transform="translate(332,138)"/>
<path d="M0 0 C2.475 0.495 2.475 0.495 5 1 C3.26216815 10.55807515 -0.42088514 18.4067604 -4.90185547 26.90039062 C-6.73626832 30.40771623 -8.48899916 33.95541603 -10.25 37.5 C-10.87982378 38.76060887 -11.51001978 40.02103186 -12.140625 41.28125 C-12.44033203 41.88066406 -12.74003906 42.48007812 -13.04882812 43.09765625 C-14.69921875 46.3984375 -16.34960938 49.69921875 -18 53 C-18.495 51.515 -18.495 51.515 -19 50 C-18.505 49.505 -18.505 49.505 -18 49 C-17.76636119 47.15108054 -17.58696365 45.29511969 -17.4375 43.4375 C-17.31181641 41.91962891 -17.31181641 41.91962891 -17.18359375 40.37109375 C-17.09271484 39.19740234 -17.09271484 39.19740234 -17 38 C-17.40992188 38.78246094 -17.81984375 39.56492187 -18.2421875 40.37109375 C-18.78101563 41.38300781 -19.31984375 42.39492188 -19.875 43.4375 C-20.40867188 44.44683594 -20.94234375 45.45617187 -21.4921875 46.49609375 C-23 49 -23 49 -25 50 C-23.55676531 45.26210835 -21.62773267 41.01141849 -19.375 36.625 C-18.88773438 35.66400391 -18.88773438 35.66400391 -18.390625 34.68359375 C-17.59742593 33.12052499 -16.79922969 31.55999378 -16 30 C-15.34 30 -14.68 30 -14 30 C-13.9175 29.319375 -13.835 28.63875 -13.75 27.9375 C-13.07984855 25.31274015 -12.35885874 23.72195817 -11 21.4375 C-8.96884226 18.33072762 -8.96884226 18.33072762 -8.5 15.875 C-8 14 -8 14 -6.1875 11.8125 C-3.35071725 8.16520789 -1.74233579 4.2538943 0 0 Z " fill="#FEA612" transform="translate(209,231)"/>
<path d="M0 0 C4.04728528 0.32815827 7.27249364 1.47968522 10.91015625 3.171875 C11.88331787 3.62199951 12.85647949 4.07212402 13.85913086 4.53588867 C14.89561768 5.01904541 15.93210449 5.50220215 17 6 C19.14827199 6.9912442 21.29671326 7.98212159 23.4453125 8.97265625 C26.79858844 10.52320159 30.15140799 12.07472705 33.50390625 13.62695312 C39.6480231 16.46743117 45.80297318 19.27670109 52 22 C51.36051789 27.06510436 49.14161575 31.27673132 46.9375 35.8125 C46.534104 36.65345215 46.13070801 37.4944043 45.71508789 38.36083984 C42.85492746 44.30078517 39.91998638 50.20203114 36.9465332 56.0859375 C34.94761376 60.05517107 33.02511176 64.05153795 31.15803528 68.08442688 C28.07759084 74.72839694 24.85584232 81.25830764 21.40625 87.71875 C15.8915023 98.12390634 10.62072906 108.64484046 5.375 119.1875 C4.45722267 121.02809025 3.53925467 122.86858544 2.62109375 124.70898438 C0.41187659 129.13823695 -1.79480417 133.56874404 -4 138 C-4.66 138 -5.32 138 -6 138 C-4.3765689 133.78392521 -2.49275873 129.70682101 -0.5625 125.625 C1.72346437 120.78760443 3.9176348 115.92890111 6 111 C6.66 111 7.32 111 8 111 C8.11472656 110.28328125 8.22945312 109.5665625 8.34765625 108.828125 C9.03432623 105.85118449 10.06353331 103.47347107 11.4375 100.75 C11.86933594 99.87859375 12.30117187 99.0071875 12.74609375 98.109375 C14 96 14 96 16 95 C16.68971129 93.00782963 17.35149108 91.00596127 18 89 C19.11198004 86.66177631 20.25011512 84.36127713 21.4375 82.0625 C24.89828266 75.25759027 28.22271508 68.3950449 31.5 61.5 C35.03585038 54.06734912 38.63499024 46.67488853 42.34570312 39.328125 C45.05053115 33.9526352 47.57358599 28.50609334 50 23 C48.76894531 22.62617187 47.53789062 22.25234375 46.26953125 21.8671875 C40.14949788 19.82597989 34.46343472 16.97618912 28.6875 14.125 C22.31869424 10.99331256 15.93507621 7.89251116 9.45703125 4.9921875 C8.50417236 4.56019043 7.55131348 4.12819336 6.56958008 3.68310547 C4.03741854 2.75983366 4.03741854 2.75983366 1.73706055 3.74267578 C-0.34266211 5.24802668 -1.05602607 6.64006518 -2 9 C-2.66 9 -3.32 9 -4 9 C-2.94124926 5.59687262 -1.99097846 2.98646769 0 0 Z " fill="#FD4201" transform="translate(243,36)"/>
<path d="M0 0 C2.33975012 7.01925035 2.33975012 7.01925035 1.10375977 10.5871582 C0.63768311 11.48265381 0.17160645 12.37814941 -0.30859375 13.30078125 C-1.05786133 14.76547852 -1.05786133 14.76547852 -1.82226562 16.25976562 C-2.35529297 17.26716797 -2.88832031 18.27457031 -3.4375 19.3125 C-4.23124023 20.85260742 -4.23124023 20.85260742 -5.04101562 22.42382812 C-6.34831084 24.95597652 -7.66821428 27.48067099 -9 30 C-8.38584229 29.99419922 -7.77168457 29.98839844 -7.13891602 29.98242188 C-5.92739868 29.9756543 -5.92739868 29.9756543 -4.69140625 29.96875 C-3.49173218 29.96004883 -3.49173218 29.96004883 -2.26782227 29.95117188 C0.24826355 30.00534532 2.56414481 30.37139221 5 31 C5 31.33 5 31.66 5 32 C3.35426767 32.02768522 1.70838931 32.04669585 0.0625 32.0625 C-1.31228516 32.07990234 -1.31228516 32.07990234 -2.71484375 32.09765625 C-5.24274149 32.02251066 -7.59231169 31.82014543 -10.08984375 31.5 C-15.02322678 30.93916624 -19.887066 30.87223577 -24.84765625 30.90234375 C-26.19361122 30.90446617 -26.19361122 30.90446617 -27.5667572 30.90663147 C-30.39870714 30.9121749 -33.23057445 30.92471642 -36.0625 30.9375 C-37.99674364 30.94252233 -39.93098853 30.94708394 -41.86523438 30.95117188 C-46.57685417 30.96212571 -51.28841313 30.97935047 -56 31 C-56 30.67 -56 30.34 -56 30 C-48.41 29.67 -40.82 29.34 -33 29 C-32.67 28.34 -32.34 27.68 -32 27 C-30.72125 27.020625 -29.4425 27.04125 -28.125 27.0625 C-26.41657386 27.05168718 -24.7081944 27.03014461 -23 27 C-22.1028125 26.98453125 -21.205625 26.9690625 -20.28125 26.953125 C-14.9818798 26.80918709 -14.9818798 26.80918709 -10.9375 23.75 C-10.05249252 21.15397807 -9.47212304 18.69784593 -9 16 C-8.36562656 14.3207762 -7.70710678 12.64991582 -7 11 C-6.34 11 -5.68 11 -5 11 C-4.9175 10.29875 -4.835 9.5975 -4.75 8.875 C-3.82972275 5.34727053 -2.11873023 2.93888386 0 0 Z " fill="#FE940E" transform="translate(328,263)"/>
<path d="M0 0 C5.03060315 0.49481342 9.50885011 2.82606647 14.0703125 4.859375 C14.94718719 5.24563049 15.82406189 5.63188599 16.72750854 6.02984619 C19.52876939 7.2652109 22.32686924 8.5075644 25.125 9.75 C26.98417793 10.57075904 28.84355106 11.39107608 30.703125 12.2109375 C39.49167258 16.09019077 48.27088419 19.9884297 57 24 C57 24.66 57 25.32 57 26 C50.15939742 24.89986921 44.30106671 23.10811894 38.0625 20.125 C36.34037311 19.32568143 34.61768276 18.52757607 32.89453125 17.73046875 C31.96592285 17.29782715 31.03731445 16.86518555 30.08056641 16.41943359 C24.77840318 13.9763541 19.43768159 11.61973279 14.09957886 9.25653076 C11.13305393 7.94289379 8.16823473 6.62542173 5.203125 5.30859375 C3.46877975 4.53899545 1.73441688 3.76943686 0 3 C-0.13140381 3.75627686 -0.26280762 4.51255371 -0.39819336 5.29174805 C-1.19038494 8.85677083 -2.79219648 11.62595366 -4.5625 14.8125 C-5.0565332 15.7087207 -5.0565332 15.7087207 -5.56054688 16.62304688 C-6.36773267 18.08533998 -7.18304917 19.5431399 -8 21 C-8.33 21 -8.66 21 -9 21 C-9.6237198 15.89143785 -7.48516177 12.54867165 -5.0625 8.25 C-4.68931641 7.56550781 -4.31613281 6.88101563 -3.93164062 6.17578125 C-1.19428228 1.19428228 -1.19428228 1.19428228 0 0 Z " fill="#FB9501" transform="translate(117,133)"/>
<path d="M0 0 C0.33 0.66 0.66 1.32 1 2 C0.06421005 4.35981813 -0.93347808 6.69631264 -2 9 C-1.67 9 -1.34 9 -1 9 C-0.53294229 14.31790265 -2.08882077 17.87157309 -4.5625 22.4375 C-5.30175996 23.84646191 -6.03868443 25.25665133 -6.7734375 26.66796875 C-7.14694336 27.38259277 -7.52044922 28.0972168 -7.90527344 28.83349609 C-8.97223861 30.9450592 -9.95695108 33.0749679 -10.9140625 35.23828125 C-11.21368896 35.9125415 -11.51331543 36.58680176 -11.82202148 37.28149414 C-12.64264266 39.14797329 -13.45249743 41.01917519 -14.26171875 42.890625 C-16.10859252 46.19424639 -17.9066419 47.87101078 -21 50 C-21.66 49.67 -22.32 49.34 -23 49 C-21.63567688 44.57251914 -19.89188732 40.58418156 -17.77734375 36.46484375 C-17.15030015 35.23116577 -16.5233498 33.9974404 -15.89648438 32.76367188 C-14.9153353 30.84490929 -13.93220251 28.9271936 -12.94702148 27.01049805 C-11.98942324 25.14371811 -11.03931468 23.2732672 -10.08984375 21.40234375 C-9.52128662 20.29366943 -8.95272949 19.18499512 -8.36694336 18.04272461 C-7.12798619 15.2848887 -6.51478263 12.95443235 -6 10 C-4.58984375 7.32421875 -4.58984375 7.32421875 -2.9375 4.6875 C-2.38964844 3.80449219 -1.84179688 2.92148438 -1.27734375 2.01171875 C-0.85582031 1.34785156 -0.43429687 0.68398437 0 0 Z " fill="#FEB21B" transform="translate(265,122)"/>
<path d="M0 0 C1.25941406 0.06058594 2.51882813 0.12117188 3.81640625 0.18359375 C14.87302267 0.68055417 25.91821055 1.03485688 36.984375 1.21875 C38.55970253 1.24631126 38.55970253 1.24631126 40.16685486 1.27442932 C44.4555055 1.34919826 48.74403169 1.42382129 53.0329895 1.47872925 C56.09119423 1.51790035 59.14903061 1.56858935 62.20703125 1.62109375 C63.13525696 1.62947266 64.06348267 1.63785156 65.01983643 1.64648438 C66.31096344 1.67150024 66.31096344 1.67150024 67.62817383 1.69702148 C68.37883621 1.70732895 69.1294986 1.71763641 69.90290833 1.72825623 C72.27879047 2.03612602 73.92865584 2.82316023 76 4 C59.36425002 4.93998664 42.78445629 5.12286035 26.125 5.0625 C23.67187593 5.05746778 21.21875084 5.05290796 18.765625 5.04882812 C12.84372726 5.03797542 6.92186863 5.02137771 1 5 C1 4.67 1 4.34 1 4 C3.64 3.67 6.28 3.34 9 3 C6.03 2.67 3.06 2.34 0 2 C0 1.34 0 0.68 0 0 Z " fill="#F57C04" transform="translate(319,291)"/>
<path d="M0 0 C1 3 1 3 0.37684631 4.84757996 C0.0256926 5.53878433 -0.32546112 6.22998871 -0.68725586 6.94213867 C-1.08194565 7.73114059 -1.47663544 8.52014252 -1.88328552 9.33305359 C-2.32269974 10.18607559 -2.76211395 11.0390976 -3.21484375 11.91796875 C-3.66340225 12.80801102 -4.11196075 13.69805328 -4.57411194 14.61506653 C-6.01927443 17.477363 -7.47808126 20.33245041 -8.9375 23.1875 C-9.88698799 25.06138294 -10.83556587 26.93572732 -11.78320312 28.81054688 C-13.64960621 32.50020272 -15.52078483 36.1873719 -17.39599609 39.87255859 C-20.60796834 46.18942278 -23.77594044 52.52784143 -26.93753052 58.87002563 C-29.00718437 63.01914212 -31.08224759 67.16555603 -33.15625 71.3125 C-34.04168703 73.08332315 -34.92710366 74.85415651 -35.8125 76.625 C-39.875 84.75 -43.9375 92.875 -48 101 C-49.08173132 97.69032602 -49.0487827 97.11841272 -47.62890625 93.671875 C-46.95198266 92.35839327 -46.26229656 91.05143943 -45.5625 89.75 C-44.81341124 88.30879683 -44.06472439 86.8673847 -43.31640625 85.42578125 C-42.92984863 84.69053223 -42.54329102 83.9552832 -42.14501953 83.19775391 C-40.71772793 80.45820614 -39.34724768 77.6928274 -37.98022461 74.92285156 C-35.08575165 69.06037233 -32.09830433 63.25723477 -29 57.5 C-22.74299431 45.8593782 -16.98439655 34.00310923 -11.37548828 22.03881836 C-7.8394861 14.55194564 -3.98150974 7.25784746 0 0 Z " fill="#FB2A01" transform="translate(263,138)"/>
<path d="M0 0 C0.495 0.99 0.495 0.99 1 2 C0.15478516 4.12866211 0.15478516 4.12866211 -1.2109375 6.77734375 C-1.70948242 7.75638672 -2.20802734 8.73542969 -2.72167969 9.74414062 C-3.26727539 10.79794922 -3.81287109 11.85175781 -4.375 12.9375 C-5.49383699 15.13327488 -6.61100691 17.32989995 -7.7265625 19.52734375 C-8.28375977 20.62288574 -8.84095703 21.71842773 -9.41503906 22.84716797 C-11.60176547 27.19704241 -13.68704614 31.59040725 -15.75 36 C-18.57253307 41.99462551 -21.40186296 47.98504229 -24.3125 53.9375 C-24.62606445 54.59427734 -24.93962891 55.25105469 -25.26269531 55.92773438 C-27.06279074 59.57413089 -28.94396282 62.30825864 -32 65 C-31.45266163 59.52715552 -29.46050971 55.44281911 -26.96484375 50.64453125 C-26.56672989 49.86107834 -26.16861603 49.07762543 -25.75843811 48.27043152 C-24.49242168 45.78047143 -23.21599684 43.29607219 -21.9375 40.8125 C-20.6561836 38.31786131 -19.3773406 35.8220958 -18.10585022 33.32243347 C-17.31607017 31.77017968 -16.5205442 30.22083328 -15.71873474 28.67475891 C-13.57951378 24.54972056 -13.57951378 24.54972056 -13 20 C-12.34 19.67 -11.68 19.34 -11 19 C-9.24560989 15.67001114 -7.62038127 12.30286434 -6.00976562 8.90234375 C-5.66751953 8.19464844 -5.32527344 7.48695313 -4.97265625 6.7578125 C-4.66593994 6.1095752 -4.35922363 5.46133789 -4.04321289 4.79345703 C-2.91952025 2.86164188 -1.63976917 1.50687778 0 0 Z " fill="#FDB324" transform="translate(188,142)"/>
<path d="M0 0 C0 0.66 0 1.32 0 2 C23.76 2 47.52 2 72 2 C71.67 2.66 71.34 3.32 71 4 C61.62501646 4.0308604 52.25002617 4.05106823 42.875 4.0625 C42.17798729 4.06335602 41.48097458 4.06421204 40.76284027 4.06509399 C14.83082586 4.09320326 -11.07744824 3.73472633 -37 3 C-37 2.34 -37 1.68 -37 1 C-24.65415863 0.32292352 -12.36592489 -0.1574163 0 0 Z " fill="#FC8304" transform="translate(39,293)"/>
<path d="M0 0 C0.99 0.33 1.98 0.66 3 1 C2.01 1.66 1.02 2.32 0 3 C-1.47413517 5.72164117 -1.47413517 5.72164117 -2.8125 8.9375 C-5.18961228 14.28157872 -7.78209794 19.39947286 -10.625 24.5078125 C-12.18466138 27.33469876 -13.64024308 30.19980777 -15.0625 33.09765625 C-15.71632451 34.42437515 -16.38413169 35.74425514 -17.0625 37.05859375 C-19.07284713 40.96842327 -20.73128096 44.77093655 -22 49 C-22.66 49 -23.32 49 -24 49 C-24.15855469 49.59167969 -24.31710938 50.18335938 -24.48046875 50.79296875 C-26.08163388 56.21569926 -27.65489248 59.35950451 -32 63 C-30.70529543 58.8721977 -29.16098109 55.06553326 -27.234375 51.1940918 C-26.68040039 50.07661057 -26.12642578 48.95912933 -25.55566406 47.80778503 C-24.95403974 46.60479769 -24.35214537 45.40194537 -23.75 44.19921875 C-23.1297075 42.95474333 -22.50959309 41.71017913 -21.88964844 40.4655304 C-20.59451291 37.86782466 -19.29631602 35.27167683 -17.99609375 32.67651367 C-16.32809641 29.34634187 -14.6692885 26.01168552 -13.01287842 22.67573833 C-11.73712147 20.10952608 -10.45586255 17.54609169 -9.17297363 14.98343849 C-8.55868406 13.75434523 -7.94629016 12.52430267 -7.33581543 11.29331017 C-6.48480344 9.57900147 -5.62541917 7.86885651 -4.765625 6.15893555 C-4.03520996 4.69716133 -4.03520996 4.69716133 -3.29003906 3.20585632 C-2 1 -2 1 0 0 Z " fill="#FE6205" transform="translate(213,97)"/>
<path d="M0 0 C0.66 0.33 1.32 0.66 2 1 C0.52944669 5.86413787 -1.495352 10.19179977 -3.8125 14.6875 C-7.04788001 21.05218199 -10.12013886 27.4649305 -13 34 C-13.33 33.34 -13.66 32.68 -14 32 C-15.485 32.495 -15.485 32.495 -17 33 C-15.33735411 27.47893132 -12.96269827 22.38434412 -10.5 17.1875 C-10.09652344 16.31673828 -9.69304687 15.44597656 -9.27734375 14.54882812 C-8.88675781 13.72189453 -8.49617188 12.89496094 -8.09375 12.04296875 C-7.73990234 11.29039795 -7.38605469 10.53782715 -7.02148438 9.76245117 C-6 8 -6 8 -4 7 C-3.67 6.01 -3.34 5.02 -3 4 C-2.67 3.01 -2.34 2.02 -2 1 C-1.34 0.67 -0.68 0.34 0 0 Z " fill="#FDB01E" transform="translate(309,178)"/>
<path d="M0 0 C4.04728528 0.32815827 7.27249364 1.47968522 10.91015625 3.171875 C11.88331787 3.62199951 12.85647949 4.07212402 13.85913086 4.53588867 C14.89561768 5.01904541 15.93210449 5.50220215 17 6 C19.14827199 6.9912442 21.29671326 7.98212159 23.4453125 8.97265625 C26.79858844 10.52320159 30.15140799 12.07472705 33.50390625 13.62695312 C39.6480231 16.46743117 45.80297318 19.27670109 52 22 C51.39301257 26.12751449 49.96189209 29.3321148 48 33 C47.01 32.505 47.01 32.505 46 32 C47.98 27.545 47.98 27.545 50 23 C48.76894531 22.62617187 47.53789062 22.25234375 46.26953125 21.8671875 C40.14949788 19.82597989 34.46343472 16.97618912 28.6875 14.125 C22.31869424 10.99331256 15.93507621 7.89251116 9.45703125 4.9921875 C8.50417236 4.56019043 7.55131348 4.12819336 6.56958008 3.68310547 C4.03741854 2.75983366 4.03741854 2.75983366 1.73706055 3.74267578 C-0.34266211 5.24802668 -1.05602607 6.64006518 -2 9 C-2.66 9 -3.32 9 -4 9 C-2.94124926 5.59687262 -1.99097846 2.98646769 0 0 Z " fill="#FD3B00" transform="translate(243,36)"/>
<path d="M0 0 C2.37160148 2.37160148 2.31983352 3.00621122 2.375 6.25 C2.27062414 10.91709191 0.89998561 13.29446283 -2 17 C-4.88382393 21.20972413 -4.88382393 21.20972413 -6 26 C-4.02 26.33 -2.04 26.66 0 27 C0 27.33 0 27.66 0 28 C-2.97 28 -5.94 28 -9 28 C-11.34055872 20.97832384 -7.07699167 13.30050675 -4 7 C-2.79266543 4.58533087 -1.39745961 2.30884631 0 0 Z " fill="#FE9926" transform="translate(265,264)"/>
<path d="M0 0 C1 2 1 2 1 4 C2.32 3.34 3.64 2.68 5 2 C4.2670293 6.08811828 2.3122443 9.59247998 0.4375 13.25 C-0.28267365 14.67181343 -1.00272181 16.09369043 -1.72265625 17.515625 C-2.09535645 18.24845703 -2.46805664 18.98128906 -2.85205078 19.73632812 C-4.75173532 23.48236706 -6.62468183 27.24172144 -8.5 31 C-9.17695869 32.35422898 -9.85403037 33.70840149 -10.53125 35.0625 C-11.25828125 36.5165625 -11.25828125 36.5165625 -12 38 C-13 35 -13 35 -11.3828125 31.34765625 C-10.64008421 29.91411078 -9.88702528 28.48588168 -9.125 27.0625 C-8.37397446 25.63862734 -7.62645573 24.21289833 -6.8828125 22.78515625 C-6.37838623 21.83974976 -6.37838623 21.83974976 -5.86376953 20.87524414 C-4.97070038 18.9363905 -4.45142054 17.08212678 -4 15 C-3.34 15 -2.68 15 -2 15 C-2 14.34 -2 13.68 -2 13 C-3.65 13.66 -5.3 14.32 -7 15 C-6.42176904 10.93774452 -5.10882263 8.15237654 -2.9375 4.6875 C-2.38964844 3.80449219 -1.84179688 2.92148438 -1.27734375 2.01171875 C-0.85582031 1.34785156 -0.43429688 0.68398437 0 0 Z " fill="#FECF35" transform="translate(236,179)"/>
<path d="M0 0 C0.66 0 1.32 0 2 0 C1.67 0.99 1.34 1.98 1 3 C24.43 3 47.86 3 72 3 C72.33 2.34 72.66 1.68 73 1 C73 1.99 73 2.98 73 4 C75.31 4 77.62 4 80 4 C80 4.33 80 4.66 80 5 C53.27 5 26.54 5 -1 5 C-0.67 3.35 -0.34 1.7 0 0 Z " fill="#FE9800" transform="translate(40,290)"/>
<path d="M0 0 C0.66 0.33 1.32 0.66 2 1 C0.125 6.75 0.125 6.75 -1 9 C-1.66 9 -2.32 9 -3 9 C-3.09023437 9.68191406 -3.18046875 10.36382812 -3.2734375 11.06640625 C-4.17151994 14.69253482 -5.81806096 17.7034539 -7.625 20.9375 C-8.35173737 22.26872602 -9.0769633 23.60077812 -9.80078125 24.93359375 C-10.35113037 25.94462158 -10.35113037 25.94462158 -10.91259766 26.97607422 C-12.60300355 30.12233935 -14.21583289 33.30535919 -15.8125 36.5 C-16.35519531 37.5828125 -16.89789063 38.665625 -17.45703125 39.78125 C-18.58370683 42.13158083 -19.56319548 44.42596971 -20.51171875 46.84375 C-21.00285156 47.8853125 -21.49398437 48.926875 -22 50 C-23.485 50.495 -23.485 50.495 -25 51 C-23.64336934 46.4205107 -21.76488602 42.65302206 -19.3125 38.5625 C-16.29129726 33.42638568 -13.56530197 28.2205878 -11.0625 22.8125 C-10.76835205 22.17707275 -10.4742041 21.54164551 -10.17114258 20.88696289 C-8.98239277 18.28144041 -7.90643895 15.71931686 -7 13 C-6.34 13 -5.68 13 -5 13 C-4.87625 12.278125 -4.7525 11.55625 -4.625 10.8125 C-4.0095069 8.04278106 -3.11555626 5.6029646 -2 3 C-1.34 3 -0.68 3 0 3 C0 2.01 0 1.02 0 0 Z " fill="#FD5100" transform="translate(238,45)"/>
<path d="M0 0 C0.33 0.66 0.66 1.32 1 2 C0.06421005 4.35981813 -0.93347808 6.69631264 -2 9 C-1.67 9 -1.34 9 -1 9 C-0.72228582 13.67948398 -1.45162603 16.67583336 -3.5 20.875 C-3.9640625 21.84179688 -4.428125 22.80859375 -4.90625 23.8046875 C-5.44765625 24.89136719 -5.44765625 24.89136719 -6 26 C-7.65 25.67 -9.3 25.34 -11 25 C-10.33333333 23 -9.66666667 21 -9 19 C-8.70996094 18.07058594 -8.41992188 17.14117187 -8.12109375 16.18359375 C-6.95203798 12.86380124 -5.5280729 9.82565734 -3.9375 6.6875 C-3.41027344 5.63949219 -2.88304687 4.59148437 -2.33984375 3.51171875 C-1 1 -1 1 0 0 Z " fill="#FEAA0E" transform="translate(265,122)"/>
<path d="M0 0 C1.25 1.5625 1.25 1.5625 2 4 C0.375 7.25 0.375 7.25 -0.796875 9.09375 C-1.96071774 10.93776057 -2.92624593 12.78816955 -3.875 14.75 C-5.51986136 18.10499499 -7.30368079 21.36253987 -9.125 24.625 C-10.71229098 27.50270709 -12.02141424 30.06424272 -13.0625 33.1875 C-14.39818302 37.19454905 -16.67171033 40.49867889 -19 44 C-19.703125 42.43359375 -19.703125 42.43359375 -20 40 C-19.01984706 37.55869314 -17.98612677 35.36964951 -16.75 33.0625 C-16.39736084 32.38098877 -16.04472168 31.69947754 -15.68139648 30.99731445 C-14.4668469 28.65807581 -13.23400985 26.32902785 -12 24 C-10.51483203 21.17402058 -9.0319361 18.34686019 -7.54980469 15.51928711 C-6.56851814 13.65094458 -5.58356695 11.78452161 -4.59472656 9.92016602 C-4.14194336 9.06350342 -3.68916016 8.20684082 -3.22265625 7.32421875 C-2.81797119 6.56197998 -2.41328613 5.79974121 -1.99633789 5.0144043 C-0.8847832 2.88291557 -0.8847832 2.88291557 0 0 Z " fill="#FE6006" transform="translate(317,167)"/>
<path d="M0 0 C5.33852794 -0.0494731 10.67692214 -0.08575425 16.015625 -0.10986328 C17.83140386 -0.11991491 19.64716656 -0.13355828 21.46289062 -0.15087891 C24.07425935 -0.17516406 26.68541387 -0.18649148 29.296875 -0.1953125 C30.10743347 -0.20563507 30.91799194 -0.21595764 31.75311279 -0.22659302 C38.71585532 -0.22797609 38.71585532 -0.22797609 42 2 C31.44496417 2.55374543 20.88196738 3.09097272 10.3125 3.25 C9.61326416 3.27126953 8.91402832 3.29253906 8.19360352 3.31445312 C3.38967608 3.34804283 3.38967608 3.34804283 1.29760742 1.47949219 C0.86939697 0.99125977 0.44118652 0.50302734 0 0 Z " fill="#AB530B" transform="translate(353,293)"/>
<path d="M0 0 C-0.15955118 8.13710995 -3.98833047 14.12883757 -8 21 C-9 18 -9 18 -7.5625 14.8125 C-7.046875 13.884375 -6.53125 12.95625 -6 12 C-7.32 12.33 -8.64 12.66 -10 13 C-9.34197179 8.6570138 -7.96361202 4.92722404 -6 1 C-3 0 -3 0 0 0 Z " fill="#FEBA20" transform="translate(220,220)"/>
<path d="M0 0 C0.495 0.99 0.495 0.99 1 2 C1.99 2 2.98 2 4 2 C4 2.66 4 3.32 4 4 C-18.77 4 -41.54 4 -65 4 C-65 3.67 -65 3.34 -65 3 C-46.52 3 -28.04 3 -9 3 C-8.67 2.34 -8.34 1.68 -8 1 C-5.36 1.33 -2.72 1.66 0 2 C0 1.34 0 0.68 0 0 Z " fill="#FB6703" transform="translate(108,289)"/>
<path d="M0 0 C0.495 1.485 0.495 1.485 1 3 C-10.88 3 -22.76 3 -35 3 C-35 2.34 -35 1.68 -35 1 C-23.32446893 0.37160039 -11.69591188 -0.17691295 0 0 Z " fill="#C46210" transform="translate(37,293)"/>
<path d="M0 0 C0.33 0.66 0.66 1.32 1 2 C0.04370117 4.38256836 0.04370117 4.38256836 -1.45703125 7.33984375 C-1.99263672 8.40267578 -2.52824219 9.46550781 -3.08007812 10.56054688 C-3.93762695 12.23213867 -3.93762695 12.23213867 -4.8125 13.9375 C-5.65264648 15.60329102 -5.65264648 15.60329102 -6.50976562 17.30273438 C-10.66178097 25.49267146 -10.66178097 25.49267146 -13 29 C-13.66 29 -14.32 29 -15 29 C-14.71872579 27.51882199 -14.42466268 26.04006751 -14.125 24.5625 C-13.96257812 23.73878906 -13.80015625 22.91507813 -13.6328125 22.06640625 C-13.42398438 21.38449219 -13.21515625 20.70257813 -13 20 C-12.34 19.67 -11.68 19.34 -11 19 C-9.24560989 15.67001114 -7.62038127 12.30286434 -6.00976562 8.90234375 C-5.66751953 8.19464844 -5.32527344 7.48695313 -4.97265625 6.7578125 C-4.66593994 6.1095752 -4.35922363 5.46133789 -4.04321289 4.79345703 C-2.91952025 2.86164188 -1.63976917 1.50687778 0 0 Z " fill="#FDAA17" transform="translate(188,142)"/>
<path d="M0 0 C0.33 0.66 0.66 1.32 1 2 C-0.52896191 5.84808033 -2.44722679 9.50969853 -4.31396484 13.2043457 C-5.2449082 15.0523921 -6.15630842 16.90919483 -7.06640625 18.76757812 C-7.64777344 19.92837891 -8.22914063 21.08917969 -8.828125 22.28515625 C-9.3634082 23.35644775 -9.89869141 24.42773926 -10.45019531 25.53149414 C-12 28 -12 28 -15 29 C-13.24886442 22.88144888 -10.34200634 17.35315346 -7.5 11.6875 C-7.00113281 10.67365234 -6.50226563 9.65980469 -5.98828125 8.61523438 C-5.50746094 7.65294922 -5.02664062 6.69066406 -4.53125 5.69921875 C-4.09361328 4.82096436 -3.65597656 3.94270996 -3.20507812 3.0378418 C-2 1 -2 1 0 0 Z " fill="#FCA409" transform="translate(202,114)"/>
<path d="M0 0 C1 3 1 3 0.01196289 5.4519043 C-0.4960083 6.39976807 -1.00397949 7.34763184 -1.52734375 8.32421875 C-2.34428711 9.86625977 -2.34428711 9.86625977 -3.17773438 11.43945312 C-3.75845703 12.51130859 -4.33917969 13.58316406 -4.9375 14.6875 C-5.8027832 16.31268555 -5.8027832 16.31268555 -6.68554688 17.97070312 C-8.11481271 20.65205307 -9.55323957 23.32806075 -11 26 C-8.36 26 -5.72 26 -3 26 C-3 26.66 -3 27.32 -3 28 C-6.3 28 -9.6 28 -13 28 C-12.48356989 22.38159662 -10.29995481 18.28373933 -7.625 13.4375 C-7.22539063 12.69564453 -6.82578125 11.95378906 -6.4140625 11.18945312 C-4.36437603 7.40360131 -2.25278454 3.66985868 0 0 Z " fill="#FE9E38" transform="translate(129,264)"/>
<path d="M0 0 C0.66 0.66 1.32 1.32 2 2 C-3.28 12.56 -8.56 23.12 -14 34 C-14.66 34 -15.32 34 -16 34 C-14.3765689 29.78392521 -12.49275873 25.70682101 -10.5625 21.625 C-8.27653563 16.78760443 -6.0823652 11.92890111 -4 7 C-3.34 7 -2.68 7 -2 7 C-1.855625 6.21625 -1.71125 5.4325 -1.5625 4.625 C-1 2 -1 2 0 0 Z " fill="#FE5B06" transform="translate(253,140)"/>
<path d="M0 0 C1 2 1 2 0.328125 4.2421875 C-0.02765625 5.11101562 -0.3834375 5.97984375 -0.75 6.875 C-1.26820313 8.17050781 -1.26820313 8.17050781 -1.796875 9.4921875 C-2.97335821 11.94446744 -4.33926567 13.85840962 -6 16 C-6.515625 17.051875 -7.03125 18.10375 -7.5625 19.1875 C-9 22 -9 22 -11 23 C-10.44518631 17.579897 -8.51474406 13.45744021 -6.0625 8.6875 C-5.70220703 7.95982422 -5.34191406 7.23214844 -4.97070312 6.48242188 C-2.26276903 1.13138451 -2.26276903 1.13138451 0 0 Z " fill="#FDBB35" transform="translate(155,208)"/>
<path d="M0 0 C9.15564771 -0.34915606 17.95960217 0.72958023 27 2 C23.93843346 3.77669223 21.75963785 4.24050818 18.234375 4.1953125 C17.34492188 4.18886719 16.45546875 4.18242187 15.5390625 4.17578125 C14.61867188 4.15902344 13.69828125 4.14226562 12.75 4.125 C11.81414062 4.11597656 10.87828125 4.10695313 9.9140625 4.09765625 C7.60911343 4.07413636 5.3046884 4.04126853 3 4 C3.99 3.34 4.98 2.68 6 2 C3.03 1.505 3.03 1.505 0 1 C0 0.67 0 0.34 0 0 Z " fill="#E46D05" transform="translate(333,292)"/>
<path d="M0 0 C1.17578125 1.62109375 1.17578125 1.62109375 2 4 C0.91796875 6.91015625 0.91796875 6.91015625 -0.8125 10.0625 C-3.17677516 14.41341229 -3.17677516 14.41341229 -5 19 C-5.99 19 -6.98 19 -8 19 C-7.38188466 14.44684052 -5.53234107 10.71540233 -3.4375 6.6875 C-2.9434668 5.71973633 -2.9434668 5.71973633 -2.43945312 4.73242188 C-1.63175745 3.15214772 -0.81662387 1.57567895 0 0 Z " fill="#FEB728" transform="translate(121,273)"/>
<path d="M0 0 C0.87840996 3.09720845 0.99435406 4.90645403 0 8 C-0.66 8 -1.32 8 -2 8 C-2.15855469 8.59167969 -2.31710938 9.18335938 -2.48046875 9.79296875 C-4.08163388 15.21569926 -5.65489248 18.35950451 -10 22 C-8.4719611 16.90117545 -6.28963144 12.34334341 -3.875 7.625 C-3.50246094 6.88894531 -3.12992188 6.15289062 -2.74609375 5.39453125 C-1.8343878 3.59449642 -0.91770068 1.79698598 0 0 Z " fill="#FE6F0A" transform="translate(191,138)"/>
<path d="M0 0 C4.71370756 0.64985095 8.57686444 2.51561392 12.8125 4.5625 C13.50537109 4.89185547 14.19824219 5.22121094 14.91210938 5.56054688 C16.61044948 6.36872251 18.30555769 7.18368377 20 8 C19.01 9.485 19.01 9.485 18 11 C18 10.34 18 9.68 18 9 C17.360625 9.0825 16.72125 9.165 16.0625 9.25 C11.59707243 8.8854753 7.99088772 6.94762276 4 5 C4 4.34 4 3.68 4 3 C2.0399719 1.36323743 2.0399719 1.36323743 0 0 Z " fill="#FC8F00" transform="translate(295,146)"/>
<path d="M0 0 C1 3 1 3 -0.14453125 5.6640625 C-0.97017578 7.12972656 -0.97017578 7.12972656 -1.8125 8.625 C-2.62654297 10.09839844 -2.62654297 10.09839844 -3.45703125 11.6015625 C-5 14 -5 14 -7 15 C-6.47799942 9.77999416 -4.79095098 5.41286212 -2 1 C-1.34 0.67 -0.68 0.34 0 0 Z " fill="#FDB32B" transform="translate(163,192)"/>
<path d="M0 0 C1.27350058 3.01009228 0.99687398 4.00781505 -0.25 7.125 C-2 10 -2 10 -5 12 C-4.93999894 10.3739713 -4.8512115 8.74898451 -4.75 7.125 C-4.70359375 6.22007812 -4.6571875 5.31515625 -4.609375 4.3828125 C-4 2 -4 2 -1.953125 0.6796875 C-1.30859375 0.45539063 -0.6640625 0.23109375 0 0 Z " fill="#FDB734" transform="translate(265,267)"/>
<path d="M0 0 C0.66 0.33 1.32 0.66 2 1 C1.67 3.31 1.34 5.62 1 8 C1.66 8.33 2.32 8.66 3 9 C2.34 9.66 1.68 10.32 1 11 C0.34 11 -0.32 11 -1 11 C-2.36161311 11.96113866 -3.69855198 12.95884159 -5 14 C-4.690625 13.443125 -4.38125 12.88625 -4.0625 12.3125 C-2.93540854 9.85941859 -2.51561463 7.64252498 -2 5 C-1.36562656 3.3207762 -0.70710678 1.64991582 0 0 Z " fill="#FD931F" transform="translate(321,274)"/>
<path d="M0 0 C2.12493141 -0.02693575 4.24995912 -0.04636628 6.375 -0.0625 C7.55835938 -0.07410156 8.74171875 -0.08570313 9.9609375 -0.09765625 C13 0 13 0 15 1 C15 1.66 15 2.32 15 3 C13.06318839 3.08107583 11.1254066 3.13922475 9.1875 3.1875 C8.10855469 3.22230469 7.02960938 3.25710938 5.91796875 3.29296875 C3 3 3 3 1.11328125 1.48828125 C0.56220703 0.75158203 0.56220703 0.75158203 0 0 Z " fill="#CB5E07" transform="translate(353,293)"/>
<path d="M0 0 C0.66 0 1.32 0 2 0 C1.39009109 3.55780196 0.4216319 6.6828589 -1 10 C-0.34 10.33 0.32 10.66 1 11 C-1.97 10.505 -1.97 10.505 -5 10 C-5 9.34 -5 8.68 -5 8 C-4.34 8 -3.68 8 -3 8 C-2.87625 7.236875 -2.7525 6.47375 -2.625 5.6875 C-2 3 -2 3 0 0 Z " fill="#FE9C29" transform="translate(183,282)"/>
<path d="M0 0 C0.33 0.66 0.66 1.32 1 2 C-0.07518118 4.44332726 -1.19808566 6.76754523 -2.4375 9.125 C-2.77587891 9.78371094 -3.11425781 10.44242188 -3.46289062 11.12109375 C-4.30149926 12.75106547 -5.14984811 14.37601909 -6 16 C-6.33 16 -6.66 16 -7 16 C-7 13.69 -7 11.38 -7 9 C-6.01 9 -5.02 9 -4 9 C-4.0825 8.2575 -4.165 7.515 -4.25 6.75 C-3.92894816 3.21842973 -2.64734383 2.23369636 0 0 Z " fill="#FB8703" transform="translate(351,223)"/>
<path d="M0 0 C0.66 0.66 1.32 1.32 2 2 C1.34 2.94875 0.68 3.8975 0 4.875 C-2.17968457 7.66238955 -2.17968457 7.66238955 -2 10 C0.97 10.495 0.97 10.495 4 11 C4 11.33 4 11.66 4 12 C1.03 12 -1.94 12 -5 12 C-5.33 11.01 -5.66 10.02 -6 9 C-5.34 8.01 -4.68 7.02 -4 6 C-3.34 6 -2.68 6 -2 6 C-1.34 4.02 -0.68 2.04 0 0 Z " fill="#FE942B" transform="translate(261,280)"/>
<path d="M0 0 C0.66 0.33 1.32 0.66 2 1 C1.34215037 4.29680965 0.10579427 6.84117922 -1.5625 9.75 C-2.01753906 10.54921875 -2.47257812 11.3484375 -2.94140625 12.171875 C-3.29074219 12.77515625 -3.64007813 13.3784375 -4 14 C-4.66 14 -5.32 14 -6 14 C-4.50829734 9.0276578 -2.39542583 4.58154261 0 0 Z " fill="#FE8922" transform="translate(278,245)"/>
<path d="M0 0 C1 4 1 4 -0.8125 7.4375 C-1.18503906 8.035625 -1.55757813 8.63375 -1.94140625 9.25 C-3.24460162 11.40435987 -4.14103394 13.63784334 -5 16 C-5.99 16 -6.98 16 -8 16 C-5.36 10.72 -2.72 5.44 0 0 Z " fill="#FD9E03" transform="translate(273,105)"/>
<path d="M0 0 C1.1171875 1.703125 1.1171875 1.703125 2 4 C1.3203125 6.359375 1.3203125 6.359375 0.125 8.75 C-0.45894531 9.94882813 -0.45894531 9.94882813 -1.0546875 11.171875 C-1.36664063 11.77515625 -1.67859375 12.3784375 -2 13 C-2.99 12.67 -3.98 12.34 -5 12 C-3.68938409 7.76570244 -2.05643741 3.92592596 0 0 Z " fill="#FDA61D" transform="translate(167,181)"/>
<path d="M0 0 C0.66 0.33 1.32 0.66 2 1 C0.84414715 4.91211733 -0.35534962 7.8745041 -3 11 C-4.125 5.25 -4.125 5.25 -3 3 C-2.01979625 1.9805881 -1.02196992 0.97753644 0 0 Z " fill="#FB8D01" transform="translate(356,209)"/>
<path d="M0 0 C1 3 1 3 -0.14453125 5.4453125 C-0.69496094 6.32960937 -1.24539062 7.21390625 -1.8125 8.125 C-2.35519531 9.01445312 -2.89789063 9.90390625 -3.45703125 10.8203125 C-5 13 -5 13 -7 14 C-5.53967505 8.68972746 -3.01679014 4.53669968 0 0 Z " fill="#FE6B09" transform="translate(94,186)"/>
<path d="M0 0 C0.99 0 1.98 0 3 0 C2.36934243 3.21852831 1.21979305 5.50801069 -0.5625 8.25 C-1.01753906 8.95640625 -1.47257812 9.6628125 -1.94140625 10.390625 C-2.29074219 10.92171875 -2.64007813 11.4528125 -3 12 C-3.88336837 9.5332355 -4.1312406 8.36140628 -3.22265625 5.859375 C-2.83980469 5.16328125 -2.45695312 4.4671875 -2.0625 3.75 C-1.68222656 3.04359375 -1.30195313 2.3371875 -0.91015625 1.609375 C-0.60980469 1.07828125 -0.30945313 0.5471875 0 0 Z " fill="#FE6B0E" transform="translate(301,199)"/>
<path d="M0 0 C3.63 0 7.26 0 11 0 C11 0.66 11 1.32 11 2 C6.545 2.495 6.545 2.495 2 3 C2 2.34 2 1.68 2 1 C1.34 0.67 0.68 0.34 0 0 Z " fill="#BB5809" transform="translate(366,293)"/>
<path d="M0 0 C0.33 0.66 0.66 1.32 1 2 C0.00390625 4.1640625 0.00390625 4.1640625 -1.4375 6.625 C-1.91058594 7.44226563 -2.38367188 8.25953125 -2.87109375 9.1015625 C-3.24363281 9.72804687 -3.61617187 10.35453125 -4 11 C-5.04528847 7.76591956 -5.06464549 7.15699619 -3.6875 3.8125 C-2 1 -2 1 0 0 Z " fill="#FCC23F" transform="translate(138,242)"/>
<path d="M0 0 C0.33 0.66 0.66 1.32 1 2 C1.99 2 2.98 2 4 2 C4 2.66 4 3.32 4 4 C-0.51617599 4.07654536 -4.59085217 4.10228696 -9 3 C-8.67 2.34 -8.34 1.68 -8 1 C-5.36 1.33 -2.72 1.66 0 2 C0 1.34 0 0.68 0 0 Z " fill="#FB7F08" transform="translate(108,289)"/>
<path d="M0 0 C0.33 0 0.66 0 1 0 C1 2.64 1 5.28 1 8 C-0.32 8.33 -1.64 8.66 -3 9 C-2.44271087 5.65626525 -1.64826111 2.96687001 0 0 Z " fill="#FEA517" transform="translate(116,283)"/>
<path d="M0 0 C0.99 0 1.98 0 3 0 C2.67 1.98 2.34 3.96 2 6 C1.34 6 0.68 6 0 6 C-0.33 6.66 -0.66 7.32 -1 8 C-1.125 2.25 -1.125 2.25 0 0 Z " fill="#FDB730" transform="translate(257,280)"/>
<path d="M0 0 C0.6875 1.6875 0.6875 1.6875 1 4 C-0.4375 6.75 -0.4375 6.75 -2 9 C-2.33 8.01 -2.66 7.02 -3 6 C-3.66 6 -4.32 6 -5 6 C-4.34 4.68 -3.68 3.36 -3 2 C-2.67 2.66 -2.34 3.32 -2 4 C-1.34 2.68 -0.68 1.36 0 0 Z " fill="#FA7202" transform="translate(111,149)"/>
<path d="M0 0 C4.95 0.99 4.95 0.99 10 2 C10.33 2.99 10.66 3.98 11 5 C6.87248551 4.39301257 3.6678852 2.96189209 0 1 C0 0.67 0 0.34 0 0 Z " fill="#FBA500" transform="translate(366,151)"/>
<path d="M0 0 C1 3 1 3 0 6 C-0.99 6.66 -1.98 7.32 -3 8 C-3.66 8.99 -4.32 9.98 -5 11 C-4.46884894 6.48521602 -2.63379708 3.65333143 0 0 Z " fill="#FD9518" transform="translate(328,263)"/>
<path d="M0 0 C0.99 0.33 1.98 0.66 3 1 C3 2.32 3 3.64 3 5 C1.35 5.33 -0.3 5.66 -2 6 C-1.34 4.02 -0.68 2.04 0 0 Z " fill="#FD9F00" transform="translate(367,181)"/>
<path d="M0 0 C2.97 0.99 5.94 1.98 9 3 C8.01 4.485 8.01 4.485 7 6 C7 5.34 7 4.68 7 4 C5.35 4 3.7 4 2 4 C1.34 2.68 0.68 1.36 0 0 Z " fill="#FB7C01" transform="translate(306,151)"/>
<path d="M0 0 C0.33 0.66 0.66 1.32 1 2 C1.99 1.67 2.98 1.34 4 1 C3.34 2.65 2.68 4.3 2 6 C1.01 6 0.02 6 -1 6 C-1.33 4.68 -1.66 3.36 -2 2 C-1.34 2 -0.68 2 0 2 C0 1.34 0 0.68 0 0 Z " fill="#FDA425" transform="translate(281,231)"/>
<path d="M0 0 C0.33 0.99 0.66 1.98 1 3 C-0.375 5.6875 -0.375 5.6875 -2 8 C-2.33 8 -2.66 8 -3 8 C-2.74438677 5.6568787 -2.40729228 3.32156597 -2 1 C-1.34 0.67 -0.68 0.34 0 0 Z " fill="#FDC031" transform="translate(163,192)"/>
<path d="M0 0 C0.66 0.33 1.32 0.66 2 1 C1.60196439 3.88575819 1.20990931 4.82189513 -1.0625 6.75 C-1.701875 7.1625 -2.34125 7.575 -3 8 C-2.45276317 4.62537285 -1.9451 2.91765 0 0 Z " fill="#FDA200" transform="translate(375,165)"/>
<path d="M0 0 C-0.33 1.65 -0.66 3.3 -1 5 C-1.99 5 -2.98 5 -4 5 C-4 3.68 -4 2.36 -4 1 C-2 0 -2 0 0 0 Z " fill="#FDBF39" transform="translate(270,261)"/>
<path d="M0 0 C0.99 0.99 1.98 1.98 3 3 C2.34 4.32 1.68 5.64 1 7 C1 6.34 1 5.68 1 5 C0.01 5.33 -0.98 5.66 -2 6 C-1.34 4.02 -0.68 2.04 0 0 Z " fill="#FEA82A" transform="translate(269,256)"/>
<path d="M0 0 C2.31 0.33 4.62 0.66 7 1 C6.67 2.32 6.34 3.64 6 5 C3.98079663 3.69593116 1.98075027 2.36176581 0 1 C0 0.67 0 0.34 0 0 Z " fill="#FE2E00" transform="translate(306,154)"/>
<path d="M0 0 C3.82097239 0.53069061 6.06171403 1.49701566 9 4 C7.35 4.33 5.7 4.66 4 5 C2.68 3.35 1.36 1.7 0 0 Z " fill="#FB8601" transform="translate(282,140)"/>
<path d="M0 0 C5.75 1.75 5.75 1.75 8 4 C5.625 4.625 5.625 4.625 3 5 C1 3 1 3 0 0 Z " fill="#F98200" transform="translate(261,40)"/>
<path d="M0 0 C0.66 0.66 1.32 1.32 2 2 C1.34 2 0.68 2 0 2 C0 1.34 0 0.68 0 0 Z " fill="#FF7205" transform="translate(252,284)"/>
<path d="M0 0 C0.33 0.66 0.66 1.32 1 2 C0.34 1.67 -0.32 1.34 -1 1 C-0.67 0.67 -0.34 0.34 0 0 Z " fill="#FF7406" transform="translate(272,245)"/>
<path d="M0 0 C0.66 0.66 1.32 1.32 2 2 C1.34 2 0.68 2 0 2 C0 1.34 0 0.68 0 0 Z " fill="#FE7B0B" transform="translate(142,224)"/>
<path d="M0 0 C3 1 3 1 3 1 Z " fill="#E56101" transform="translate(253,34)"/>
<path d="" fill="#F48117" transform="translate(0,0)"/>
<path d="" fill="#FF7106" transform="translate(0,0)"/>
<path d="" fill="#FD790B" transform="translate(0,0)"/>
<path d="" fill="#FF7709" transform="translate(0,0)"/>
<path d="" fill="#FD7D0C" transform="translate(0,0)"/>
<path d="" fill="#FA6802" transform="translate(0,0)"/>
<path d="" fill="#FB7706" transform="translate(0,0)"/>
<path d="M0 0 C2 1 2 1 2 1 Z " fill="#E86303" transform="translate(364,146)"/>
<path d="" fill="#EF7710" transform="translate(0,0)"/>
<path d="" fill="#FE7704" transform="translate(0,0)"/>
<path d="" fill="#FB8A16" transform="translate(0,0)"/>
<path d="" fill="#FF7606" transform="translate(0,0)"/>
<path d="" fill="#FE8811" transform="translate(0,0)"/>
<path d="" fill="#F27F1B" transform="translate(0,0)"/>
<path d="" fill="#FF9015" transform="translate(0,0)"/>
<path d="" fill="#FF8915" transform="translate(0,0)"/>
<path d="" fill="#F88412" transform="translate(0,0)"/>
<path d="" fill="#FF7608" transform="translate(0,0)"/>
<path d="" fill="#FF7007" transform="translate(0,0)"/>
<path d="" fill="#FF8C15" transform="translate(0,0)"/>
<path d="" fill="#F57C10" transform="translate(0,0)"/>
<path d="" fill="#FF840E" transform="translate(0,0)"/>
<path d="" fill="#FF7508" transform="translate(0,0)"/>
<path d="" fill="#FF8511" transform="translate(0,0)"/>
<path d="" fill="#F4750F" transform="translate(0,0)"/>
<path d="" fill="#FF800D" transform="translate(0,0)"/>
<path d="" fill="#FE8611" transform="translate(0,0)"/>
<path d="" fill="#ED7A18" transform="translate(0,0)"/>
<path d="" fill="#FE6B06" transform="translate(0,0)"/>
<path d="" fill="#FF6D06" transform="translate(0,0)"/>
<path d="" fill="#FF810D" transform="translate(0,0)"/>
<path d="" fill="#F16D0B" transform="translate(0,0)"/>
<path d="" fill="#FF7108" transform="translate(0,0)"/>
<path d="" fill="#FF7F0C" transform="translate(0,0)"/>
<path d="" fill="#FB6803" transform="translate(0,0)"/>
<path d="" fill="#FF6805" transform="translate(0,0)"/>
<path d="" fill="#FF7D09" transform="translate(0,0)"/>
<path d="" fill="#FF7105" transform="translate(0,0)"/>
<path d="" fill="#FF7606" transform="translate(0,0)"/>
<path d="" fill="#FE7709" transform="translate(0,0)"/>
<path d="" fill="#FE7606" transform="translate(0,0)"/>
<path d="" fill="#FE6C06" transform="translate(0,0)"/>
<path d="" fill="#FC6702" transform="translate(0,0)"/>
<path d="" fill="#FD6A04" transform="translate(0,0)"/>
<path d="" fill="#FD7505" transform="translate(0,0)"/>
<path d="" fill="#E06503" transform="translate(0,0)"/>
<path d="" fill="#E76705" transform="translate(0,0)"/>
<path d="" fill="#F96B00" transform="translate(0,0)"/>
<path d="" fill="#FC6502" transform="translate(0,0)"/>
<path d="" fill="#FF6C02" transform="translate(0,0)"/>
<path d="" fill="#FB6602" transform="translate(0,0)"/>
<path d="" fill="#FE7506" transform="translate(0,0)"/>
<path d="" fill="#FB6704" transform="translate(0,0)"/>
<path d="" fill="#FF7607" transform="translate(0,0)"/>
<path d="" fill="#FD6E07" transform="translate(0,0)"/>
<path d="" fill="#FD6902" transform="translate(0,0)"/>
<path d="" fill="#FD7608" transform="translate(0,0)"/>
<path d="" fill="#FC7206" transform="translate(0,0)"/>
<path d="" fill="#D75B00" transform="translate(0,0)"/>
<path d="" fill="#EE7007" transform="translate(0,0)"/>
<path d="" fill="#FA7D11" transform="translate(0,0)"/>
<path d="" fill="#F46903" transform="translate(0,0)"/>
<path d="" fill="#F66C05" transform="translate(0,0)"/>
<path d="" fill="#F76804" transform="translate(0,0)"/>
<path d="" fill="#F06E05" transform="translate(0,0)"/>
<path d="" fill="#F86C04" transform="translate(0,0)"/>
<path d="" fill="#EF6B07" transform="translate(0,0)"/>
<path d="" fill="#ED6A04" transform="translate(0,0)"/>
<path d="" fill="#FC6E00" transform="translate(0,0)"/>
<path d="" fill="#FB7104" transform="translate(0,0)"/>
<path d="" fill="#F56C02" transform="translate(0,0)"/>
<path d="" fill="#F6750B" transform="translate(0,0)"/>
<path d="" fill="#7A3D08" transform="translate(0,0)"/>
<path d="" fill="#743B09" transform="translate(0,0)"/>
<path d="" fill="#6B370A" transform="translate(0,0)"/>
<path d="" fill="#E25F00" transform="translate(0,0)"/>
<path d="" fill="#E86001" transform="translate(0,0)"/>
<path d="" fill="#E85E01" transform="translate(0,0)"/>
<path d="" fill="#7B3D06" transform="translate(0,0)"/>
<path d="" fill="#743C07" transform="translate(0,0)"/>
<path d="" fill="#854105" transform="translate(0,0)"/>
<path d="" fill="#5D300B" transform="translate(0,0)"/>
<path d="" fill="#854105" transform="translate(0,0)"/>
<path d="" fill="#E16101" transform="translate(0,0)"/>
<path d="" fill="#7D3D05" transform="translate(0,0)"/>
<path d="" fill="#6D3607" transform="translate(0,0)"/>
<path d="" fill="#5D320B" transform="translate(0,0)"/>
<path d="" fill="#8C4404" transform="translate(0,0)"/>
</svg>
